<svg width="88" height="88" viewBox="0 0 88 88" fill="none" xmlns="http://www.w3.org/2000/svg">
<path d="M13.7527 44.0082H1.375V81.1332H13.7527C14.5076 81.1332 15.1277 80.5131 15.1277 79.7582C15.1277 79.0006 15.1277 77.7631 15.1277 77.0082V48.1332C15.1277 47.3756 15.1277 46.1381 15.1277 45.3832C15.1277 44.6256 14.5076 44.0082 13.7527 44.0082Z" fill="#656D78"/>
<path d="M53.625 56.3832L80.19 52.3421C80.4911 52.2857 80.8074 52.2582 81.125 52.2582C84.1624 52.2582 86.625 54.7181 86.625 57.7582C86.625 59.7932 85.5236 61.567 83.875 62.5171L46.75 82.5082L15.125 78.3832V46.7582H27.5L49.0724 50.9671C51.6587 51.4071 53.625 53.6594 53.625 56.3832Z" fill="#EAC6BB"/>
<path d="M8.28992 78.3832C7.52955 78.3832 6.90942 77.7686 6.90942 77.0082C6.90942 76.2479 7.5158 75.6332 8.27617 75.6332H8.28992C9.0503 75.6332 9.66492 76.2479 9.66492 77.0082C9.66492 77.7686 9.0503 78.3832 8.28992 78.3832Z" fill="#FFCE54"/>
<path d="M56.3379 55.9694L53.625 56.3832C53.625 59.4206 51.1624 61.8832 48.125 61.8832C47.9697 61.8832 47.8129 61.8695 47.6603 61.8585C47.6575 61.8557 47.6575 61.8557 47.6548 61.8557L30.3573 60.5096C29.6052 60.4615 28.9397 61.0197 28.8778 61.7746C28.8214 62.5322 29.3852 63.1922 30.1428 63.2514L47.3083 64.5865V64.592C47.5792 64.6195 47.8528 64.6319 48.125 64.6319C52.6749 64.6319 56.375 60.9317 56.375 56.3819C56.375 56.2402 56.3462 56.1096 56.3379 55.9694Z" fill="#D3B1A9"/>
<path d="M75.625 30.2418C75.625 36.3055 70.7025 41.2418 64.625 41.2418H64.2675H35.0625C30.1263 41.2418 26.125 37.2405 26.125 32.3043V26.7905C26.125 31.7268 30.1263 35.728 35.0625 35.728H64.2675H64.625C70.7025 35.728 75.625 30.8055 75.625 24.728V30.2418Z" fill="#CCD1D9"/>
<path d="M64.625 13.7418C70.7025 13.7418 75.625 18.6643 75.625 24.728C75.625 30.8055 70.7025 35.728 64.625 35.728H64.2675H35.0625C30.1263 35.728 26.125 31.7268 26.125 26.7905C26.125 21.8543 30.1263 17.8668 35.0625 17.8668H35.9975C37.29 10.8281 43.45 5.49176 50.875 5.49176C56.7463 5.49176 61.8475 8.84814 64.35 13.7418H64.625Z" fill="#E6E9ED"/>
</svg>
