<svg width="88" height="88" viewBox="0 0 88 88" fill="none" xmlns="http://www.w3.org/2000/svg">
<path d="M11.6875 22.0206H7.5625H2.75C2.0075 22.0206 1.375 21.3881 1.375 20.6456V12.3956C1.375 11.6394 2.0075 11.0206 2.75 11.0206H16.5C17.2563 11.0206 17.875 11.6394 17.875 12.3956V20.6456C17.875 21.3881 17.2563 22.0206 16.5 22.0206H11.6875Z" fill="#5D9CEC"/>
<path d="M12.3764 22.0206L13.7514 26.1319H5.5L6.875 22.0206H12.3764Z" fill="#545C66"/>
<path d="M12.3764 72.8682L13.7514 76.9932H5.5L6.875 72.8682H12.3764Z" fill="#545C66"/>
<path d="M17.875 63.2569V71.4931C17.875 72.2494 17.2563 72.8681 16.5 72.8681H11.6875H7.5625H2.75C2.0075 72.8681 1.375 72.2494 1.375 71.4931V63.2569C1.375 62.5006 2.0075 61.8819 2.75 61.8819H16.5C17.2563 61.8819 17.875 62.5006 17.875 63.2569Z" fill="#5D9CEC"/>
<path d="M81.1415 72.8682L82.5165 76.9932H74.2651L75.6401 72.8682H81.1415Z" fill="#545C66"/>
<path d="M86.625 63.2569V71.4931C86.625 72.2494 86.0063 72.8681 85.25 72.8681H80.4375H76.3125H71.5138C70.7575 72.8681 70.1388 72.2494 70.1388 71.4931V63.2569C70.1388 62.5006 70.7575 61.8819 71.5138 61.8819H85.25C86.0063 61.8819 86.625 62.5006 86.625 63.2569Z" fill="#5D9CEC"/>
<path d="M81.1415 21.9932L82.5165 26.1182H74.2651L75.6401 21.9932H81.1415Z" fill="#545C66"/>
<path d="M86.625 12.3819V20.6181C86.625 21.3744 86.0063 21.9931 85.25 21.9931H80.4375H76.3125H71.5138C70.7575 21.9931 70.1388 21.3744 70.1388 20.6181V12.3819C70.1388 11.6256 70.7575 11.0069 71.5138 11.0069H85.25C86.0063 11.0069 86.625 11.6256 86.625 12.3819Z" fill="#5D9CEC"/>
<path d="M55 55.0069C59.565 55.0069 63.25 51.3081 63.25 46.7569V52.2569C63.25 56.8081 59.565 60.5069 55 60.5069H31.625C27.83 60.5069 24.7638 57.4269 24.7638 53.6456V48.1319C24.7638 51.9269 27.83 54.9931 31.625 54.9931H55V55.0069Z" fill="#CCD1D9"/>
<path d="M55.6738 38.533C59.9226 38.8768 63.25 42.4243 63.25 46.7555C63.25 51.3068 59.565 55.0055 55 55.0055V54.9918H31.625C27.83 54.9918 24.7638 51.9255 24.7638 48.1305C24.7638 44.3355 27.83 41.2693 31.625 41.2693H31.7075H31.7227C32.395 35.0818 37.6352 30.2693 44.0138 30.2693C49.4038 30.2693 53.9825 33.7205 55.6614 38.533H55.6738Z" fill="#E6E9ED"/>
<path d="M19.2459 50.8901H9.62366C8.86328 50.8901 8.24866 50.2755 8.24866 49.5151C8.24866 48.7548 8.86328 48.1401 9.62366 48.1401H19.2459C20.0063 48.1401 20.6209 48.7548 20.6209 49.5151C20.6209 50.2755 20.0063 50.8901 19.2459 50.8901Z" fill="#E6E9ED"/>
<path d="M9.62366 57.761C8.86328 57.761 8.24866 57.1464 8.24866 56.386V49.5275C8.24866 48.7672 8.86328 48.1525 9.62366 48.1525C10.384 48.1525 10.9987 48.7672 10.9987 49.5275V56.386C10.9987 57.1464 10.384 57.761 9.62366 57.761Z" fill="#E6E9ED"/>
<path d="M16.4973 53.6525C16.1453 53.6525 15.7933 53.5178 15.5252 53.2496C14.9875 52.712 14.9875 51.843 15.5252 51.3054L18.2752 48.5554C18.8128 48.0178 19.6818 48.0178 20.2194 48.5554C20.757 49.093 20.757 49.962 20.2194 50.4996L17.4694 53.2496C17.2013 53.5178 16.8493 53.6525 16.4973 53.6525Z" fill="#E6E9ED"/>
<path d="M19.2473 50.9025C18.8953 50.9025 18.5433 50.7678 18.2752 50.4996L15.5252 47.7496C14.9875 47.212 14.9875 46.343 15.5252 45.8054C16.0628 45.2678 16.9318 45.2678 17.4694 45.8054L20.2194 48.5554C20.757 49.093 20.757 49.962 20.2194 50.4996C19.9513 50.7678 19.5993 50.9025 19.2473 50.9025Z" fill="#E6E9ED"/>
<path d="M19.2459 50.8901H9.62366C8.86328 50.8901 8.24866 50.2755 8.24866 49.5151C8.24866 48.7548 8.86328 48.1401 9.62366 48.1401H19.2459C20.0063 48.1401 20.6209 48.7548 20.6209 49.5151C20.6209 50.2755 20.0063 50.8901 19.2459 50.8901Z" fill="#E6E9ED"/>
<path d="M9.62366 57.761C8.86328 57.761 8.24866 57.1464 8.24866 56.386V49.5275C8.24866 48.7672 8.86328 48.1525 9.62366 48.1525C10.384 48.1525 10.9987 48.7672 10.9987 49.5275V56.386C10.9987 57.1464 10.384 57.761 9.62366 57.761Z" fill="#E6E9ED"/>
<path d="M16.4973 53.6525C16.1453 53.6525 15.7933 53.5178 15.5252 53.2496C14.9875 52.712 14.9875 51.843 15.5252 51.3054L18.2752 48.5554C18.8128 48.0178 19.6818 48.0178 20.2194 48.5554C20.757 49.093 20.757 49.962 20.2194 50.4996L17.4694 53.2496C17.2013 53.5178 16.8493 53.6525 16.4973 53.6525Z" fill="#E6E9ED"/>
<path d="M19.2473 50.9025C18.8953 50.9025 18.5433 50.7678 18.2752 50.4996L15.5252 47.7496C14.9875 47.212 14.9875 46.343 15.5252 45.8054C16.0628 45.2678 16.9318 45.2678 17.4694 45.8054L20.2194 48.5554C20.757 49.093 20.757 49.962 20.2194 50.4996C19.9513 50.7678 19.5993 50.9025 19.2473 50.9025Z" fill="#E6E9ED"/>
<path d="M19.2459 39.8819H9.62366C8.86328 39.8819 8.24866 39.2673 8.24866 38.5069C8.24866 37.7465 8.86328 37.1319 9.62366 37.1319H19.2459C20.0063 37.1319 20.6209 37.7465 20.6209 38.5069C20.6209 39.2673 20.0063 39.8819 19.2459 39.8819Z" fill="#E6E9ED"/>
<path d="M9.62366 39.8695C8.86328 39.8695 8.24866 39.2549 8.24866 38.4945V31.636C8.24866 30.8757 8.86328 30.261 9.62366 30.261C10.384 30.261 10.9987 30.8757 10.9987 31.636V38.4945C10.9987 39.2549 10.384 39.8695 9.62366 39.8695Z" fill="#E6E9ED"/>
<path d="M19.2473 39.8695C18.8953 39.8695 18.5433 39.7348 18.2752 39.4667L15.5252 36.7167C14.9875 36.179 14.9875 35.31 15.5252 34.7724C16.0628 34.2348 16.9318 34.2348 17.4694 34.7724L20.2194 37.5224C20.757 38.06 20.757 38.929 20.2194 39.4667C19.9513 39.7348 19.5993 39.8695 19.2473 39.8695Z" fill="#E6E9ED"/>
<path d="M16.4973 42.6195C16.1453 42.6195 15.7933 42.4848 15.5252 42.2167C14.9875 41.679 14.9875 40.81 15.5252 40.2724L18.2752 37.5224C18.8128 36.9848 19.6818 36.9848 20.2194 37.5224C20.757 38.06 20.757 38.929 20.2194 39.4667L17.4694 42.2167C17.2013 42.4848 16.8493 42.6195 16.4973 42.6195Z" fill="#E6E9ED"/>
<path d="M78.3915 50.8888H68.7693C68.0089 50.8888 67.3943 50.2742 67.3943 49.5138C67.3943 48.7534 68.0089 48.1388 68.7693 48.1388H78.3915C79.1519 48.1388 79.7665 48.7534 79.7665 49.5138C79.7665 50.2742 79.1505 50.8888 78.3915 50.8888Z" fill="#E6E9ED"/>
<path d="M78.3915 57.7596C77.6311 57.7596 77.0165 57.145 77.0165 56.3846V49.5261C77.0165 48.7657 77.6311 48.1511 78.3915 48.1511C79.1519 48.1511 79.7665 48.7657 79.7665 49.5261V56.3846C79.7665 57.145 79.1505 57.7596 78.3915 57.7596Z" fill="#E6E9ED"/>
<path d="M71.5179 53.6512C71.1659 53.6512 70.8139 53.5164 70.5458 53.2483L67.7958 50.4983C67.2582 49.9607 67.2582 49.0917 67.7958 48.554C68.3334 48.0164 69.2024 48.0164 69.74 48.554L72.49 51.304C73.0277 51.8417 73.0277 52.7107 72.49 53.2483C72.2205 53.5164 71.8699 53.6512 71.5179 53.6512Z" fill="#E6E9ED"/>
<path d="M68.7679 50.9012C68.4159 50.9012 68.0639 50.7664 67.7958 50.4983C67.2582 49.9607 67.2582 49.0917 67.7958 48.554L70.5458 45.804C71.0834 45.2664 71.9524 45.2664 72.49 45.804C73.0277 46.3417 73.0277 47.2107 72.49 47.7483L69.74 50.4983C69.4705 50.7664 69.1199 50.9012 68.7679 50.9012Z" fill="#E6E9ED"/>
<path d="M78.3915 50.8888H68.7693C68.0089 50.8888 67.3943 50.2742 67.3943 49.5138C67.3943 48.7534 68.0089 48.1388 68.7693 48.1388H78.3915C79.1519 48.1388 79.7665 48.7534 79.7665 49.5138C79.7665 50.2742 79.1505 50.8888 78.3915 50.8888Z" fill="#E6E9ED"/>
<path d="M78.3915 57.7596C77.6311 57.7596 77.0165 57.145 77.0165 56.3846V49.5261C77.0165 48.7657 77.6311 48.1511 78.3915 48.1511C79.1519 48.1511 79.7665 48.7657 79.7665 49.5261V56.3846C79.7665 57.145 79.1505 57.7596 78.3915 57.7596Z" fill="#E6E9ED"/>
<path d="M71.5179 53.6512C71.1659 53.6512 70.8139 53.5164 70.5458 53.2483L67.7958 50.4983C67.2582 49.9607 67.2582 49.0917 67.7958 48.554C68.3334 48.0164 69.2024 48.0164 69.74 48.554L72.49 51.304C73.0277 51.8417 73.0277 52.7107 72.49 53.2483C72.2205 53.5164 71.8699 53.6512 71.5179 53.6512Z" fill="#E6E9ED"/>
<path d="M68.7679 50.9012C68.4159 50.9012 68.0639 50.7664 67.7958 50.4983C67.2582 49.9607 67.2582 49.0917 67.7958 48.554L70.5458 45.804C71.0834 45.2664 71.9524 45.2664 72.49 45.804C73.0277 46.3417 73.0277 47.2107 72.49 47.7483L69.74 50.4983C69.4705 50.7664 69.1199 50.9012 68.7679 50.9012Z" fill="#E6E9ED"/>
<path d="M78.3915 39.8805H68.7693C68.0089 39.8805 67.3943 39.2659 67.3943 38.5055C67.3943 37.7451 68.0089 37.1305 68.7693 37.1305H78.3915C79.1519 37.1305 79.7665 37.7451 79.7665 38.5055C79.7665 39.2659 79.1505 39.8805 78.3915 39.8805Z" fill="#E6E9ED"/>
<path d="M78.3915 39.8681C77.6311 39.8681 77.0165 39.2535 77.0165 38.4931V31.6346C77.0165 30.8743 77.6311 30.2596 78.3915 30.2596C79.1519 30.2596 79.7665 30.8743 79.7665 31.6346V38.4931C79.7665 39.2535 79.1505 39.8681 78.3915 39.8681Z" fill="#E6E9ED"/>
<path d="M68.7679 39.8681C68.4159 39.8681 68.0639 39.7334 67.7958 39.4653C67.2582 38.9276 67.2582 38.0586 67.7958 37.521L70.5458 34.771C71.0834 34.2334 71.9524 34.2334 72.49 34.771C73.0277 35.3086 73.0277 36.1776 72.49 36.7153L69.74 39.4653C69.4705 39.7334 69.1199 39.8681 68.7679 39.8681Z" fill="#E6E9ED"/>
<path d="M71.5179 42.6181C71.1659 42.6181 70.8139 42.4834 70.5458 42.2153L67.7958 39.4653C67.2582 38.9276 67.2582 38.0586 67.7958 37.521C68.3334 36.9834 69.2024 36.9834 69.74 37.521L72.49 40.271C73.0277 40.8086 73.0277 41.6776 72.49 42.2153C72.2205 42.4834 71.8699 42.6181 71.5179 42.6181Z" fill="#E6E9ED"/>
<path d="M82.5001 27.4918H74.2528C73.4924 27.4918 72.8778 26.8771 72.8778 26.1168C72.8778 25.3564 73.4924 24.7418 74.2528 24.7418H82.5001C83.2604 24.7418 83.8751 25.3564 83.8751 26.1168C83.8751 26.8771 83.2604 27.4918 82.5001 27.4918Z" fill="#656D78"/>
<path d="M82.5001 78.3654H74.2528C73.4924 78.3654 72.8778 77.7507 72.8778 76.9904C72.8778 76.23 73.4924 75.6154 74.2528 75.6154H82.5001C83.2604 75.6154 83.8751 76.23 83.8751 76.9904C83.8751 77.7507 83.2604 78.3654 82.5001 78.3654Z" fill="#656D78"/>
<path d="M13.7473 78.3654H5.5C4.73963 78.3654 4.125 77.7507 4.125 76.9904C4.125 76.23 4.73963 75.6154 5.5 75.6154H13.7473C14.5076 75.6154 15.1223 76.23 15.1223 76.9904C15.1223 77.7507 14.5076 78.3654 13.7473 78.3654Z" fill="#656D78"/>
<path d="M85.246 9.63464H71.507C69.9903 9.63464 68.757 10.868 68.757 12.3846V20.6264C68.757 22.143 69.9903 23.3764 71.507 23.3764H85.246C86.7626 23.3764 87.996 22.143 87.996 20.6264V12.3846C87.996 10.868 86.7626 9.63464 85.246 9.63464ZM85.2405 20.6264H71.507V12.3846H85.246L85.2405 20.6264Z" fill="#656D78"/>
<path d="M85.246 60.5083H71.507C69.9903 60.5083 68.757 61.7417 68.757 63.2583V71.5C68.757 73.0167 69.9903 74.25 71.507 74.25H85.246C86.7626 74.25 87.996 73.0167 87.996 71.5V63.2583C87.996 61.7417 86.7626 60.5083 85.246 60.5083ZM85.2405 71.5H71.507V63.2583H85.246L85.2405 71.5Z" fill="#656D78"/>
<path d="M16.4931 60.5083H2.75415C1.23753 60.5083 0.00415039 61.7417 0.00415039 63.2583V71.5C0.00415039 73.0167 1.23753 74.25 2.75415 74.25H16.4931C18.0098 74.25 19.2431 73.0167 19.2431 71.5V63.2583C19.2431 61.7417 18.0098 60.5083 16.4931 60.5083ZM16.4876 71.5H2.75415V63.2583H16.4931L16.4876 71.5Z" fill="#656D78"/>
<path d="M16.4931 9.65112H2.75415C1.23753 9.65112 0.00415039 10.8845 0.00415039 12.4011V20.6429C0.00415039 22.1595 1.23753 23.3929 2.75415 23.3929H16.4931C18.0098 23.3929 19.2431 22.1595 19.2431 20.6429V12.4011C19.2431 10.8845 18.0098 9.65112 16.4931 9.65112ZM16.4876 20.6429H2.75415V12.4011H16.4931L16.4876 20.6429Z" fill="#656D78"/>
<path d="M13.7473 27.5083H5.5C4.73963 27.5083 4.125 26.8937 4.125 26.1333C4.125 25.3729 4.73963 24.7583 5.5 24.7583H13.7473C14.5076 24.7583 15.1223 25.3729 15.1223 26.1333C15.1223 26.8937 14.5076 27.5083 13.7473 27.5083Z" fill="#656D78"/>
</svg>
