<svg width="88" height="88" viewBox="0 0 88 88" fill="none" xmlns="http://www.w3.org/2000/svg">
<path d="M67.375 61.875V45.375V37.125C78.0038 37.125 86.625 45.7463 86.625 56.375C86.625 67.0037 78.0038 75.625 67.375 75.625H16.5C8.15375 75.625 1.375 68.86 1.375 60.5C1.375 52.14 8.15375 45.375 16.5 45.375H20.625V61.875H67.375Z" fill="#E6E9ED"/>
<path d="M70.1264 61.875H17.8764C17.116 61.875 16.5014 61.2604 16.5014 60.5C16.5014 59.7396 17.116 59.125 17.8764 59.125H70.1264C70.8868 59.125 71.5014 59.7396 71.5014 60.5C71.5014 61.2604 70.8868 61.875 70.1264 61.875Z" fill="#CCD1D9"/>
<path d="M67.375 12.375H20.625V61.875H67.375V12.375Z" fill="#656D78"/>
<path d="M67.375 12.375H20.625L26.125 6.875H61.875L67.375 12.375Z" fill="#545C66"/>
<path d="M28.875 34.375C30.4012 34.375 31.625 35.5987 31.625 37.125C31.625 38.6375 30.4012 39.875 28.875 39.875C27.3625 39.875 26.125 38.6375 26.125 37.125C26.125 35.5987 27.3625 34.375 28.875 34.375Z" fill="#5D9CEC"/>
<path d="M28.875 17.875C30.4012 17.875 31.625 19.0987 31.625 20.625C31.625 22.1375 30.4012 23.375 28.875 23.375C27.3625 23.375 26.125 22.1375 26.125 20.625C26.125 19.0987 27.3625 17.875 28.875 17.875Z" fill="#5D9CEC"/>
<path d="M28.875 50.875C30.4012 50.875 31.625 52.0987 31.625 53.625C31.625 55.1375 30.4012 56.375 28.875 56.375C27.3625 56.375 26.125 55.1375 26.125 53.625C26.125 52.0987 27.3625 50.875 28.875 50.875Z" fill="#5D9CEC"/>
<path d="M67.375 37.125V45.375H22H20.625V28.875H67.375V37.125ZM31.625 37.125C31.625 35.5988 30.4012 34.375 28.875 34.375C27.3625 34.375 26.125 35.5988 26.125 37.125C26.125 38.6375 27.3625 39.875 28.875 39.875C30.4012 39.875 31.625 38.6375 31.625 37.125Z" fill="#545C66"/>
<path d="M86.625 61.875C86.625 72.5175 78.0038 81.125 67.375 81.125H16.5C8.15375 81.125 1.375 74.36 1.375 66V60.5C1.375 68.86 8.15375 75.625 16.5 75.625H67.375C78.0038 75.625 86.625 67.0037 86.625 56.375V61.875Z" fill="#CCD1D9"/>
<path d="M49.5 23.3722C49.2937 23.3722 49.0834 23.3255 48.8867 23.2279C48.2075 22.8882 47.9325 22.0619 48.2721 21.3826L49.6471 18.6326C49.9881 17.9534 50.8117 17.6797 51.4924 18.018C52.1716 18.3576 52.4466 19.184 52.107 19.8632L50.732 22.6132C50.49 23.0945 50.0046 23.3722 49.5 23.3722Z" fill="#545C66"/>
<path d="M55 23.3722C54.7937 23.3722 54.5834 23.3255 54.3867 23.2279C53.7075 22.8882 53.4325 22.0619 53.7721 21.3826L55.1471 18.6326C55.4881 17.9534 56.3145 17.6797 56.9924 18.018C57.6716 18.3576 57.9466 19.184 57.607 19.8632L56.232 22.6132C55.99 23.0945 55.5046 23.3722 55 23.3722Z" fill="#545C66"/>
<path d="M60.5 23.3722C60.2937 23.3722 60.0834 23.3255 59.8867 23.2279C59.2075 22.8882 58.9325 22.0619 59.2721 21.3826L60.6471 18.6326C60.9867 17.9534 61.8131 17.6797 62.4924 18.018C63.1716 18.3576 63.4466 19.184 63.107 19.8632L61.732 22.6132C61.49 23.0945 61.0046 23.3722 60.5 23.3722Z" fill="#545C66"/>
<path d="M49.5 39.8722C49.2937 39.8722 49.0834 39.8255 48.8867 39.7279C48.2075 39.3882 47.9325 38.5619 48.2721 37.8826L49.6471 35.1326C49.9881 34.4534 50.8117 34.1797 51.4924 34.518C52.1716 34.8576 52.4466 35.684 52.107 36.3632L50.732 39.1132C50.49 39.5945 50.0046 39.8722 49.5 39.8722Z" fill="#434A54"/>
<path d="M55 39.8722C54.7937 39.8722 54.5834 39.8255 54.3867 39.7279C53.7075 39.3882 53.4325 38.5619 53.7721 37.8826L55.1471 35.1326C55.4881 34.4534 56.3145 34.1797 56.9924 34.518C57.6716 34.8576 57.9466 35.684 57.607 36.3632L56.232 39.1132C55.99 39.5945 55.5046 39.8722 55 39.8722Z" fill="#434A54"/>
<path d="M60.5 39.8722C60.2937 39.8722 60.0834 39.8255 59.8867 39.7279C59.2075 39.3882 58.9325 38.5619 59.2721 37.8826L60.6471 35.1326C60.9867 34.4534 61.8131 34.1797 62.4924 34.518C63.1716 34.8576 63.4466 35.684 63.107 36.3632L61.732 39.1132C61.49 39.5945 61.0046 39.8722 60.5 39.8722Z" fill="#434A54"/>
<path d="M49.5 56.3722C49.2937 56.3722 49.0834 56.3255 48.8867 56.2279C48.2075 55.8882 47.9325 55.0619 48.2721 54.3826L49.6471 51.6326C49.9881 50.9534 50.8117 50.6797 51.4924 51.018C52.1716 51.3576 52.4466 52.184 52.107 52.8632L50.732 55.6132C50.49 56.0945 50.0046 56.3722 49.5 56.3722Z" fill="#545C66"/>
<path d="M55 56.3722C54.7937 56.3722 54.5834 56.3255 54.3867 56.2279C53.7075 55.8882 53.4325 55.0619 53.7721 54.3826L55.1471 51.6326C55.4881 50.9534 56.3145 50.6797 56.9924 51.018C57.6716 51.3576 57.9466 52.184 57.607 52.8632L56.232 55.6132C55.99 56.0945 55.5046 56.3722 55 56.3722Z" fill="#545C66"/>
<path d="M60.5 56.3722C60.2937 56.3722 60.0834 56.3255 59.8867 56.2279C59.2075 55.8882 58.9325 55.0619 59.2721 54.3826L60.6471 51.6326C60.9867 50.9534 61.8131 50.6797 62.4924 51.018C63.1716 51.3576 63.4466 52.184 63.107 52.8632L61.732 55.6132C61.49 56.0945 61.0046 56.3722 60.5 56.3722Z" fill="#545C66"/>
</svg>
