<svg width="72" height="72" viewBox="0 0 72 72" fill="none" xmlns="http://www.w3.org/2000/svg">
<path d="M47.2837 62.9989C47.9024 62.9989 48.4087 63.5052 48.4087 64.1239V65.2489C48.4087 65.8677 47.9024 66.3739 47.2837 66.3739H43.9087C43.2899 66.3739 42.7837 65.8677 42.7837 65.2489V64.1239C42.7837 63.5052 43.2899 62.9989 43.9087 62.9989H47.2837Z" fill="#EDAB37"/>
<path d="M57.4087 62.9989C58.0274 62.9989 58.5337 63.5052 58.5337 64.1239V66.3739C58.5337 66.9927 58.0274 67.4989 57.4087 67.4989H52.9087C52.2899 67.4989 51.7837 66.9927 51.7837 66.3739V64.1239C51.7837 63.5052 52.2899 62.9989 52.9087 62.9989H57.4087Z" fill="#EDAB37"/>
<path d="M55.395 13.5113C52.0088 6.19875 44.595 1.125 36 1.125C24.9637 1.125 15.8737 9.50625 14.7487 20.25H14.7375H13.5C6.66 20.25 1.125 25.7962 1.125 32.625C1.125 39.465 6.66 45 13.5 45H55.125C63.8213 45 70.875 37.9575 70.875 29.25C70.875 20.655 63.9675 13.6687 55.395 13.5113Z" fill="#E6E9ED"/>
<path d="M28.1059 62.64C28.1329 62.2192 28.1329 61.5318 28.1059 61.1111C28.0789 60.6892 27.8775 59.6261 27.8809 59.6261C27.8843 59.6261 28.3928 59.6261 29.0115 59.6261H58.5338C59.1525 59.6261 59.6588 60.1323 59.6588 60.7511V63.0011C59.6588 63.6198 59.1525 64.1261 58.5338 64.1261H52.9088C52.29 64.1261 51.2775 64.1261 50.6588 64.1261H49.5338C48.915 64.1261 47.9025 64.1261 47.2838 64.1261H43.9088C43.29 64.1261 42.2775 64.1261 41.6588 64.1261H29.0003C28.3827 64.125 28.0789 63.0618 28.1059 62.64Z" fill="#F6BB42"/>
<path d="M30.1274 59.625C30.3074 60.345 30.4087 61.0988 30.4087 61.875C30.4087 62.6512 30.3074 63.405 30.1274 64.125C29.1251 68.0063 25.6038 70.875 21.4087 70.875C16.4362 70.875 12.4087 66.8475 12.4087 61.875C12.4087 56.9025 16.4362 52.875 21.4087 52.875C25.6049 52.875 29.1262 55.7437 30.1274 59.625ZM25.9087 61.875C25.9087 59.3888 23.8949 57.375 21.4087 57.375C18.9224 57.375 16.9087 59.3888 16.9087 61.875C16.9087 64.3612 18.9224 66.375 21.4087 66.375C23.8949 66.375 25.9087 64.3612 25.9087 61.875Z" fill="#FFCE54"/>
<path d="M1.125 32.625C1.125 39.465 6.66 45 13.5 45H55.125C63.8213 45 70.875 37.9575 70.875 29.25V33.75C70.875 42.4575 63.8213 49.5 55.125 49.5H13.5C6.66 49.5 1.125 43.965 1.125 37.125V32.625Z" fill="#CCD1D9"/>
<path d="M22.5337 27.0011C22.5337 26.3824 23.0399 25.8761 23.6587 25.8761H48.4087C49.0274 25.8761 49.5337 26.3824 49.5337 27.0011V31.5011C49.5337 32.1199 49.0274 32.6261 48.4087 32.6261H23.6587C23.0399 32.6261 22.5337 32.1199 22.5337 31.5011V27.0011Z" fill="white"/>
<path d="M41.6587 34.875C42.2774 34.875 42.7837 35.3812 42.7837 36V37.125C42.7837 37.7438 42.2774 38.25 41.6587 38.25H30.4087C29.7899 38.25 29.2837 37.7438 29.2837 37.125V36C29.2837 35.3812 29.7899 34.875 30.4087 34.875H41.6587Z" fill="#5D9CEC"/>
<path d="M48.4087 18.0034C49.0274 18.0034 49.5337 18.5096 49.5337 19.1284V23.6284C49.5337 24.2471 49.0274 24.7534 48.4087 24.7534H23.6587C23.0399 24.7534 22.5337 24.2471 22.5337 23.6284V19.1284C22.5337 18.5096 23.0399 18.0034 23.6587 18.0034H48.4087Z" fill="white"/>
<path d="M29.3208 30.3773C28.6987 30.3773 28.1902 29.8744 28.1902 29.2523C28.1902 28.6301 28.6874 28.1273 29.3084 28.1273H29.3208C29.9418 28.1273 30.4458 28.6301 30.4458 29.2523C30.4458 29.8744 29.9407 30.3773 29.3208 30.3773Z" fill="#E6E9ED"/>
<path d="M32.6958 30.3773C32.0737 30.3773 31.5652 29.8744 31.5652 29.2523C31.5652 28.6301 32.0624 28.1273 32.6834 28.1273H32.6958C33.3168 28.1273 33.8208 28.6301 33.8208 29.2523C33.8208 29.8744 33.3157 30.3773 32.6958 30.3773Z" fill="#E6E9ED"/>
<path d="M36.0708 30.3773C35.4487 30.3773 34.9402 29.8744 34.9402 29.2523C34.9402 28.6301 35.4374 28.1273 36.0584 28.1273H36.0708C36.6918 28.1273 37.1958 28.6301 37.1958 29.2523C37.1958 29.8744 36.6907 30.3773 36.0708 30.3773Z" fill="#E6E9ED"/>
<path d="M39.4458 30.3773C38.8237 30.3773 38.3152 29.8744 38.3152 29.2523C38.3152 28.6301 38.8124 28.1273 39.4334 28.1273H39.4458C40.0668 28.1273 40.5708 28.6301 40.5708 29.2523C40.5708 29.8744 40.0657 30.3773 39.4458 30.3773Z" fill="#E6E9ED"/>
<path d="M42.8208 30.3773C42.1987 30.3773 41.6902 29.8744 41.6902 29.2523C41.6902 28.6301 42.1874 28.1273 42.8084 28.1273H42.8208C43.4418 28.1273 43.9458 28.6301 43.9458 29.2523C43.9458 29.8744 43.4407 30.3773 42.8208 30.3773Z" fill="#E6E9ED"/>
<path d="M42.7848 22.491H29.2837C28.6616 22.491 28.1587 21.9881 28.1587 21.366C28.1587 20.7439 28.6616 20.241 29.2837 20.241H42.7848C43.4069 20.241 43.9098 20.7439 43.9098 21.366C43.9098 21.9881 43.4069 22.491 42.7848 22.491Z" fill="#E6E9ED"/>
</svg>
