<svg width="786" height="589" viewBox="0 0 786 589" fill="none" xmlns="http://www.w3.org/2000/svg">
<g filter="url(#filter0_bi_908_913)">
<mask id="path-1-inside-1_908_913" fill="white">
<path fill-rule="evenodd" clip-rule="evenodd" d="M657.969 523.899C730.048 514.43 786 445.037 786 360.838C786 270.174 721.125 196.677 641.098 196.677C634.022 196.677 627.065 197.251 620.26 198.362C594.715 151.654 549.063 120.544 496.997 120.544C471.106 120.544 446.8 128.237 425.765 141.716C416.104 61.6712 355.512 0 282.206 0C202.178 0 137.303 73.4977 137.303 164.162C137.303 175.324 138.287 186.226 140.161 196.763C62.3281 199.598 0 271.972 0 360.838C0 451.502 64.8749 525 144.902 525C146.911 525 148.909 524.954 150.898 524.862V525H641.098H657.969V523.899Z"/>
</mask>
<path fill-rule="evenodd" clip-rule="evenodd" d="M657.969 523.899C730.048 514.43 786 445.037 786 360.838C786 270.174 721.125 196.677 641.098 196.677C634.022 196.677 627.065 197.251 620.26 198.362C594.715 151.654 549.063 120.544 496.997 120.544C471.106 120.544 446.8 128.237 425.765 141.716C416.104 61.6712 355.512 0 282.206 0C202.178 0 137.303 73.4977 137.303 164.162C137.303 175.324 138.287 186.226 140.161 196.763C62.3281 199.598 0 271.972 0 360.838C0 451.502 64.8749 525 144.902 525C146.911 525 148.909 524.954 150.898 524.862V525H641.098H657.969V523.899Z" fill="#84D3FF" fill-opacity="0.2"/>
<path d="M657.969 523.899L657.448 519.933L653.969 520.39V523.899H657.969ZM620.26 198.362L616.751 200.281L618.11 202.765L620.905 202.309L620.26 198.362ZM425.765 141.716L421.793 142.195L422.557 148.522L427.923 145.084L425.765 141.716ZM140.161 196.763L140.306 200.76L144.905 200.593L144.099 196.063L140.161 196.763ZM150.898 524.862H154.898V520.673L150.714 520.866L150.898 524.862ZM150.898 525H146.898V529H150.898V525ZM657.969 525V529H661.969V525H657.969ZM658.49 527.865C732.905 518.089 790 446.676 790 360.838H782C782 443.398 727.191 510.771 657.448 519.933L658.49 527.865ZM790 360.838C790 268.449 723.789 192.677 641.098 192.677V200.677C718.461 200.677 782 271.9 782 360.838H790ZM641.098 192.677C633.805 192.677 626.633 193.269 619.616 194.414L620.905 202.309C627.497 201.234 634.239 200.677 641.098 200.677V192.677ZM623.77 196.442C597.638 148.663 550.751 116.544 496.997 116.544V124.544C547.375 124.544 591.792 154.645 616.751 200.281L623.77 196.442ZM496.997 116.544C470.294 116.544 445.246 124.482 423.607 138.348L427.923 145.084C448.354 131.992 471.917 124.544 496.997 124.544V116.544ZM429.736 141.237C419.884 59.6077 357.937 -4 282.206 -4V4C353.088 4 412.324 63.7347 421.793 142.195L429.736 141.237ZM282.206 -4C199.515 -4 133.303 71.7722 133.303 164.162H141.303C141.303 75.2231 204.842 4 282.206 4V-4ZM133.303 164.162C133.303 175.559 134.308 186.696 136.223 197.463L144.099 196.063C142.266 185.757 141.303 175.089 141.303 164.162H133.303ZM140.015 192.766C59.6082 195.694 -4 270.27 -4 360.838H4C4 273.674 65.0481 203.501 140.306 200.76L140.015 192.766ZM-4 360.838C-4 453.228 62.2113 529 144.902 529V521C67.5385 521 4 449.777 4 360.838H-4ZM144.902 529C146.972 529 149.032 528.952 151.082 528.858L150.714 520.866C148.786 520.955 146.849 521 144.902 521V529ZM154.898 525V524.862H146.898V525H154.898ZM641.098 521H150.898V529H641.098V521ZM657.969 521H641.098V529H657.969V521ZM653.969 523.899V525H661.969V523.899H653.969Z" fill="url(#paint0_linear_908_913)" mask="url(#path-1-inside-1_908_913)"/>
</g>
<g filter="url(#filter1_d_908_913)">
<rect x="132" y="262" width="150" height="109" rx="8" fill="#F1F6FB"/>
<path d="M157.112 338.692C157.416 338.74 157.692 338.864 157.94 339.064C158.196 339.264 158.396 339.512 158.54 339.808C158.692 340.104 158.768 340.42 158.768 340.756C158.768 341.18 158.66 341.564 158.444 341.908C158.228 342.244 157.912 342.512 157.496 342.712C157.088 342.904 156.604 343 156.044 343H152.924V334.636H155.924C156.492 334.636 156.976 334.732 157.376 334.924C157.776 335.108 158.076 335.36 158.276 335.68C158.476 336 158.576 336.36 158.576 336.76C158.576 337.256 158.44 337.668 158.168 337.996C157.904 338.316 157.552 338.548 157.112 338.692ZM154.016 338.248H155.852C156.364 338.248 156.76 338.128 157.04 337.888C157.32 337.648 157.46 337.316 157.46 336.892C157.46 336.468 157.32 336.136 157.04 335.896C156.76 335.656 156.356 335.536 155.828 335.536H154.016V338.248ZM155.948 342.1C156.492 342.1 156.916 341.972 157.22 341.716C157.524 341.46 157.676 341.104 157.676 340.648C157.676 340.184 157.516 339.82 157.196 339.556C156.876 339.284 156.448 339.148 155.912 339.148H154.016V342.1H155.948ZM166.115 336.424V343H165.023V342.028C164.815 342.364 164.523 342.628 164.147 342.82C163.779 343.004 163.371 343.096 162.923 343.096C162.411 343.096 161.951 342.992 161.543 342.784C161.135 342.568 160.811 342.248 160.571 341.824C160.339 341.4 160.223 340.884 160.223 340.276V336.424H161.303V340.132C161.303 340.78 161.467 341.28 161.795 341.632C162.123 341.976 162.571 342.148 163.139 342.148C163.723 342.148 164.183 341.968 164.519 341.608C164.855 341.248 165.023 340.724 165.023 340.036V336.424H166.115ZM173.623 336.424L169.663 346.096H168.535L169.831 342.928L167.179 336.424H168.391L170.455 341.752L172.495 336.424H173.623ZM185.828 336.304C186.34 336.304 186.796 336.412 187.196 336.628C187.596 336.836 187.912 337.152 188.144 337.576C188.376 338 188.492 338.516 188.492 339.124V343H187.412V339.28C187.412 338.624 187.248 338.124 186.92 337.78C186.6 337.428 186.164 337.252 185.612 337.252C185.044 337.252 184.592 337.436 184.256 337.804C183.92 338.164 183.752 338.688 183.752 339.376V343H182.672V339.28C182.672 338.624 182.508 338.124 182.18 337.78C181.86 337.428 181.424 337.252 180.872 337.252C180.304 337.252 179.852 337.436 179.516 337.804C179.18 338.164 179.012 338.688 179.012 339.376V343H177.92V336.424H179.012V337.372C179.228 337.028 179.516 336.764 179.876 336.58C180.244 336.396 180.648 336.304 181.088 336.304C181.64 336.304 182.128 336.428 182.552 336.676C182.976 336.924 183.292 337.288 183.5 337.768C183.684 337.304 183.988 336.944 184.412 336.688C184.836 336.432 185.308 336.304 185.828 336.304ZM193.151 343.108C192.535 343.108 191.975 342.968 191.471 342.688C190.975 342.408 190.583 342.012 190.295 341.5C190.015 340.98 189.875 340.38 189.875 339.7C189.875 339.028 190.019 338.436 190.307 337.924C190.603 337.404 191.003 337.008 191.507 336.736C192.011 336.456 192.575 336.316 193.199 336.316C193.823 336.316 194.387 336.456 194.891 336.736C195.395 337.008 195.791 337.4 196.079 337.912C196.375 338.424 196.523 339.02 196.523 339.7C196.523 340.38 196.371 340.98 196.067 341.5C195.771 342.012 195.367 342.408 194.855 342.688C194.343 342.968 193.775 343.108 193.151 343.108ZM193.151 342.148C193.543 342.148 193.911 342.056 194.255 341.872C194.599 341.688 194.875 341.412 195.083 341.044C195.299 340.676 195.407 340.228 195.407 339.7C195.407 339.172 195.303 338.724 195.095 338.356C194.887 337.988 194.615 337.716 194.279 337.54C193.943 337.356 193.579 337.264 193.187 337.264C192.787 337.264 192.419 337.356 192.083 337.54C191.755 337.716 191.491 337.988 191.291 338.356C191.091 338.724 190.991 339.172 190.991 339.7C190.991 340.236 191.087 340.688 191.279 341.056C191.479 341.424 191.743 341.7 192.071 341.884C192.399 342.06 192.759 342.148 193.151 342.148ZM199.051 337.492C199.243 337.116 199.515 336.824 199.867 336.616C200.227 336.408 200.663 336.304 201.175 336.304V337.432H200.887C199.663 337.432 199.051 338.096 199.051 339.424V343H197.959V336.424H199.051V337.492ZM208.436 339.46C208.436 339.668 208.424 339.888 208.4 340.12H203.144C203.184 340.768 203.404 341.276 203.804 341.644C204.212 342.004 204.704 342.184 205.28 342.184C205.752 342.184 206.144 342.076 206.456 341.86C206.776 341.636 207 341.34 207.128 340.972H208.304C208.128 341.604 207.776 342.12 207.248 342.52C206.72 342.912 206.064 343.108 205.28 343.108C204.656 343.108 204.096 342.968 203.6 342.688C203.112 342.408 202.728 342.012 202.448 341.5C202.168 340.98 202.028 340.38 202.028 339.7C202.028 339.02 202.164 338.424 202.436 337.912C202.708 337.4 203.088 337.008 203.576 336.736C204.072 336.456 204.64 336.316 205.28 336.316C205.904 336.316 206.456 336.452 206.936 336.724C207.416 336.996 207.784 337.372 208.04 337.852C208.304 338.324 208.436 338.86 208.436 339.46ZM207.308 339.232C207.308 338.816 207.216 338.46 207.032 338.164C206.848 337.86 206.596 337.632 206.276 337.48C205.964 337.32 205.616 337.24 205.232 337.24C204.68 337.24 204.208 337.416 203.816 337.768C203.432 338.12 203.212 338.608 203.156 339.232H207.308Z" fill="#696D70"/>
<path d="M215.872 343.084C215.288 343.084 214.76 342.984 214.288 342.784C213.824 342.584 213.456 342.296 213.184 341.92C212.912 341.544 212.772 341.1 212.764 340.588H214.564C214.588 340.932 214.708 341.204 214.924 341.404C215.148 341.604 215.452 341.704 215.836 341.704C216.228 341.704 216.536 341.612 216.76 341.428C216.984 341.236 217.096 340.988 217.096 340.684C217.096 340.436 217.02 340.232 216.868 340.072C216.716 339.912 216.524 339.788 216.292 339.7C216.068 339.604 215.756 339.5 215.356 339.388C214.812 339.228 214.368 339.072 214.024 338.92C213.688 338.76 213.396 338.524 213.148 338.212C212.908 337.892 212.788 337.468 212.788 336.94C212.788 336.444 212.912 336.012 213.16 335.644C213.408 335.276 213.756 334.996 214.204 334.804C214.652 334.604 215.164 334.504 215.74 334.504C216.604 334.504 217.304 334.716 217.84 335.14C218.384 335.556 218.684 336.14 218.74 336.892H216.892C216.876 336.604 216.752 336.368 216.52 336.184C216.296 335.992 215.996 335.896 215.62 335.896C215.292 335.896 215.028 335.98 214.828 336.148C214.636 336.316 214.54 336.56 214.54 336.88C214.54 337.104 214.612 337.292 214.756 337.444C214.908 337.588 215.092 337.708 215.308 337.804C215.532 337.892 215.844 337.996 216.244 338.116C216.788 338.276 217.232 338.436 217.576 338.596C217.92 338.756 218.216 338.996 218.464 339.316C218.712 339.636 218.836 340.056 218.836 340.576C218.836 341.024 218.72 341.44 218.488 341.824C218.256 342.208 217.916 342.516 217.468 342.748C217.02 342.972 216.488 343.084 215.872 343.084ZM222.249 337.732V340.948C222.249 341.172 222.301 341.336 222.405 341.44C222.517 341.536 222.701 341.584 222.957 341.584H223.737V343H222.681C221.265 343 220.557 342.312 220.557 340.936V337.732H219.765V336.352H220.557V334.708H222.249V336.352H223.737V337.732H222.249ZM227.897 343.108C227.257 343.108 226.681 342.968 226.169 342.688C225.657 342.4 225.253 341.996 224.957 341.476C224.669 340.956 224.525 340.356 224.525 339.676C224.525 338.996 224.673 338.396 224.969 337.876C225.273 337.356 225.685 336.956 226.205 336.676C226.725 336.388 227.305 336.244 227.945 336.244C228.585 336.244 229.165 336.388 229.685 336.676C230.205 336.956 230.613 337.356 230.909 337.876C231.213 338.396 231.365 338.996 231.365 339.676C231.365 340.356 231.209 340.956 230.897 341.476C230.593 341.996 230.177 342.4 229.649 342.688C229.129 342.968 228.545 343.108 227.897 343.108ZM227.897 341.644C228.201 341.644 228.485 341.572 228.749 341.428C229.021 341.276 229.237 341.052 229.397 340.756C229.557 340.46 229.637 340.1 229.637 339.676C229.637 339.044 229.469 338.56 229.133 338.224C228.805 337.88 228.401 337.708 227.921 337.708C227.441 337.708 227.037 337.88 226.709 338.224C226.389 338.56 226.229 339.044 226.229 339.676C226.229 340.308 226.385 340.796 226.697 341.14C227.017 341.476 227.417 341.644 227.897 341.644ZM234.278 337.384C234.494 337.032 234.774 336.756 235.118 336.556C235.47 336.356 235.87 336.256 236.318 336.256V338.02H235.874C235.346 338.02 234.946 338.144 234.674 338.392C234.41 338.64 234.278 339.072 234.278 339.688V343H232.598V336.352H234.278V337.384ZM237.017 339.652C237.017 338.98 237.149 338.384 237.413 337.864C237.685 337.344 238.049 336.944 238.505 336.664C238.969 336.384 239.485 336.244 240.053 336.244C240.549 336.244 240.981 336.344 241.349 336.544C241.725 336.744 242.025 336.996 242.249 337.3V336.352H243.941V343H242.249V342.028C242.033 342.34 241.733 342.6 241.349 342.808C240.973 343.008 240.537 343.108 240.041 343.108C239.481 343.108 238.969 342.964 238.505 342.676C238.049 342.388 237.685 341.984 237.413 341.464C237.149 340.936 237.017 340.332 237.017 339.652ZM242.249 339.676C242.249 339.268 242.169 338.92 242.009 338.632C241.849 338.336 241.633 338.112 241.361 337.96C241.089 337.8 240.797 337.72 240.485 337.72C240.173 337.72 239.885 337.796 239.621 337.948C239.357 338.1 239.141 338.324 238.973 338.62C238.813 338.908 238.733 339.252 238.733 339.652C238.733 340.052 238.813 340.404 238.973 340.708C239.141 341.004 239.357 341.232 239.621 341.392C239.893 341.552 240.181 341.632 240.485 341.632C240.797 341.632 241.089 341.556 241.361 341.404C241.633 341.244 241.849 341.02 242.009 340.732C242.169 340.436 242.249 340.084 242.249 339.676ZM248.186 336.244C248.682 336.244 249.118 336.344 249.494 336.544C249.87 336.736 250.166 336.988 250.382 337.3V336.352H252.074V343.048C252.074 343.664 251.95 344.212 251.702 344.692C251.454 345.18 251.082 345.564 250.586 345.844C250.09 346.132 249.49 346.276 248.786 346.276C247.842 346.276 247.066 346.056 246.458 345.616C245.858 345.176 245.518 344.576 245.438 343.816H247.106C247.194 344.12 247.382 344.36 247.67 344.536C247.966 344.72 248.322 344.812 248.738 344.812C249.226 344.812 249.622 344.664 249.926 344.368C250.23 344.08 250.382 343.64 250.382 343.048V342.016C250.166 342.328 249.866 342.588 249.482 342.796C249.106 343.004 248.674 343.108 248.186 343.108C247.626 343.108 247.114 342.964 246.65 342.676C246.186 342.388 245.818 341.984 245.546 341.464C245.282 340.936 245.15 340.332 245.15 339.652C245.15 338.98 245.282 338.384 245.546 337.864C245.818 337.344 246.182 336.944 246.638 336.664C247.102 336.384 247.618 336.244 248.186 336.244ZM250.382 339.676C250.382 339.268 250.302 338.92 250.142 338.632C249.982 338.336 249.766 338.112 249.494 337.96C249.222 337.8 248.93 337.72 248.618 337.72C248.306 337.72 248.018 337.796 247.754 337.948C247.49 338.1 247.274 338.324 247.106 338.62C246.946 338.908 246.866 339.252 246.866 339.652C246.866 340.052 246.946 340.404 247.106 340.708C247.274 341.004 247.49 341.232 247.754 341.392C248.026 341.552 248.314 341.632 248.618 341.632C248.93 341.632 249.222 341.556 249.494 341.404C249.766 341.244 249.982 341.02 250.142 340.732C250.302 340.436 250.382 340.084 250.382 339.676ZM259.895 339.532C259.895 339.772 259.879 339.988 259.847 340.18H254.987C255.027 340.66 255.195 341.036 255.491 341.308C255.787 341.58 256.151 341.716 256.583 341.716C257.207 341.716 257.651 341.448 257.915 340.912H259.727C259.535 341.552 259.167 342.08 258.623 342.496C258.079 342.904 257.411 343.108 256.619 343.108C255.979 343.108 255.403 342.968 254.891 342.688C254.387 342.4 253.991 341.996 253.703 341.476C253.423 340.956 253.283 340.356 253.283 339.676C253.283 338.988 253.423 338.384 253.703 337.864C253.983 337.344 254.375 336.944 254.879 336.664C255.383 336.384 255.963 336.244 256.619 336.244C257.251 336.244 257.815 336.38 258.311 336.652C258.815 336.924 259.203 337.312 259.475 337.816C259.755 338.312 259.895 338.884 259.895 339.532ZM258.155 339.052C258.147 338.62 257.991 338.276 257.687 338.02C257.383 337.756 257.011 337.624 256.571 337.624C256.155 337.624 255.803 337.752 255.515 338.008C255.235 338.256 255.063 338.604 254.999 339.052H258.155Z" fill="#F16021"/>
<path d="M217.364 289H197.16C195.523 288.997 194.193 290.64 194.191 292.669C194.191 292.835 194.199 293 194.217 293.163C194.259 293.567 194.557 293.852 194.883 293.799C194.962 293.787 195.038 293.754 195.107 293.704C195.369 293.515 195.668 293.417 195.971 293.421H200.202C200.966 293.424 201.644 294.026 201.892 294.921L201.993 295.325C202.402 296.826 203.536 297.838 204.813 297.842H218.552C218.864 297.843 219.17 297.944 219.44 298.137C219.531 298.203 219.635 298.237 219.741 298.237C220.069 298.237 220.335 297.907 220.335 297.5V292.684C220.335 290.65 219.005 289 217.364 289Z" fill="#F16021"/>
<path d="M220.041 296.866C219.589 296.54 219.075 296.368 218.552 296.368H204.813C204.05 296.366 203.371 295.763 203.123 294.868L203.022 294.464C202.614 292.963 201.48 291.951 200.202 291.947H195.971C195.461 291.941 194.958 292.105 194.516 292.423C193.58 293.073 193 294.3 193 295.631V313.316C193 315.351 194.33 317 195.971 317H218.552C220.193 317 221.523 315.351 221.523 313.316V300.053C221.527 298.737 220.961 297.521 220.041 296.866Z" fill="#004181"/>
</g>
<g filter="url(#filter2_d_908_913)">
<rect x="258" y="42" width="97" height="97" rx="8" fill="#03AEF7" fill-opacity="0.12"/>
<g clip-path="url(#clip0_908_913)">
<path d="M315.161 63.4785C316.995 64.0374 318.663 64.9562 320.043 66.1668L324.345 69.996C325.709 71.2207 326.744 72.7033 327.372 74.3333H315.161V63.4785ZM328.152 78.9523V106.667C328.148 109.728 326.778 112.663 324.342 114.828C321.907 116.993 318.605 118.211 315.161 118.214H294.375C290.931 118.211 287.629 116.993 285.193 114.828C282.758 112.663 281.388 109.728 281.384 106.667V74.3333C281.388 71.2718 282.758 68.3367 285.193 66.1719C287.629 64.0071 290.931 62.7893 294.375 62.7856H309.964V74.3333C309.964 75.5583 310.512 76.7332 311.486 77.5994C312.461 78.4657 313.783 78.9523 315.161 78.9523H328.152ZM317.26 103.001C317.06 102.755 316.806 102.546 316.515 102.387C316.223 102.227 315.899 102.121 315.561 102.073C315.223 102.026 314.878 102.038 314.545 102.109C314.213 102.18 313.899 102.309 313.623 102.489C311.877 103.569 309.838 104.214 307.717 104.357C306.886 104.337 306.09 104.054 305.472 103.56C304.116 102.604 302.443 102.072 300.712 102.048C297.83 102.288 295.084 103.255 292.798 104.833C292.514 105.013 292.274 105.241 292.092 105.505C291.909 105.769 291.789 106.063 291.737 106.37C291.685 106.676 291.703 106.989 291.79 107.289C291.876 107.589 292.03 107.87 292.242 108.116C292.454 108.362 292.719 108.568 293.022 108.721C293.325 108.874 293.659 108.972 294.005 109.007C294.352 109.043 294.702 109.017 295.037 108.93C295.371 108.843 295.682 108.697 295.952 108.5C297.336 107.537 298.975 106.906 300.712 106.667C301.351 106.667 301.676 106.847 302.531 107.359C304.011 108.399 305.841 108.968 307.727 108.976C310.956 108.845 314.074 107.888 316.707 106.221C317.259 105.858 317.627 105.316 317.73 104.713C317.834 104.109 317.665 103.494 317.26 103.001ZM317.759 95.119C317.759 94.5065 317.485 93.919 316.998 93.4859C316.511 93.0528 315.85 92.8095 315.161 92.8095H294.375C293.686 92.8095 293.025 93.0528 292.538 93.4859C292.051 93.919 291.777 94.5065 291.777 95.119C291.777 95.7315 292.051 96.3189 292.538 96.7521C293.025 97.1852 293.686 97.4285 294.375 97.4285H315.161C315.85 97.4285 316.511 97.1852 316.998 96.7521C317.485 96.3189 317.759 95.7315 317.759 95.119ZM317.759 85.8809C317.759 85.2684 317.485 84.6809 316.998 84.2478C316.511 83.8147 315.85 83.5714 315.161 83.5714H294.375C293.686 83.5714 293.025 83.8147 292.538 84.2478C292.051 84.6809 291.777 85.2684 291.777 85.8809C291.777 86.4934 292.051 87.0808 292.538 87.514C293.025 87.9471 293.686 88.1904 294.375 88.1904H315.161C315.85 88.1904 316.511 87.9471 316.998 87.514C317.485 87.0808 317.759 86.4934 317.759 85.8809Z" fill="#03AEF7"/>
</g>
</g>
<g filter="url(#filter3_d_908_913)">
<rect x="404" y="149" width="282" height="275" rx="16" fill="white"/>
</g>
<path d="M633 289.5C633 266.028 623.676 243.518 607.079 226.921C590.482 210.324 567.972 201 544.5 201C521.028 201 498.518 210.324 481.921 226.921C465.324 243.518 456 266.028 456 289.5" stroke="#0F2132" stroke-opacity="0.07" stroke-width="30"/>
<path d="M599 289.5C599 275.046 593.258 261.183 583.037 250.963C572.817 240.742 558.954 235 544.5 235C530.046 235 516.183 240.742 505.963 250.963C495.742 261.183 490 275.046 490 289.5" stroke="url(#paint1_linear_908_913)" stroke-linecap="round" stroke-dasharray="0 1 10 0 1 10"/>
<path d="M607 226.921C590.412 210.324 567.913 201 544.454 201C520.994 201 498.496 210.324 481.908 226.921C465.319 243.518 456 266.028 456 289.5" stroke="#004181" stroke-width="30"/>
<path d="M596 237.5L617.5 216" stroke="white" stroke-width="5"/>
<g filter="url(#filter4_d_908_913)">
<rect x="441" y="289" width="207" height="84" rx="4" fill="white"/>
</g>
<path d="M521.531 312.54L516.211 325H513.371L518.731 312.86H511.891V310.46H521.531V312.54ZM524.088 321.84C525.368 320.773 526.388 319.887 527.148 319.18C527.908 318.46 528.542 317.713 529.048 316.94C529.555 316.167 529.808 315.407 529.808 314.66C529.808 313.98 529.648 313.447 529.328 313.06C529.008 312.673 528.515 312.48 527.848 312.48C527.182 312.48 526.668 312.707 526.308 313.16C525.948 313.6 525.762 314.207 525.748 314.98H523.028C523.082 313.38 523.555 312.167 524.448 311.34C525.355 310.513 526.502 310.1 527.888 310.1C529.408 310.1 530.575 310.507 531.388 311.32C532.202 312.12 532.608 313.18 532.608 314.5C532.608 315.54 532.328 316.533 531.768 317.48C531.208 318.427 530.568 319.253 529.848 319.96C529.128 320.653 528.188 321.493 527.028 322.48H532.928V324.8H523.048V322.72L524.088 321.84ZM536.253 325.14C535.746 325.14 535.326 324.987 534.993 324.68C534.673 324.36 534.513 323.967 534.513 323.5C534.513 323.033 534.673 322.647 534.993 322.34C535.326 322.02 535.746 321.86 536.253 321.86C536.746 321.86 537.153 322.02 537.473 322.34C537.793 322.647 537.953 323.033 537.953 323.5C537.953 323.967 537.793 324.36 537.473 324.68C537.153 324.987 536.746 325.14 536.253 325.14ZM549.688 312.84H543.208V316.26C543.488 315.913 543.888 315.633 544.408 315.42C544.928 315.193 545.481 315.08 546.068 315.08C547.135 315.08 548.008 315.313 548.688 315.78C549.368 316.247 549.861 316.847 550.168 317.58C550.475 318.3 550.628 319.073 550.628 319.9C550.628 321.433 550.188 322.667 549.308 323.6C548.441 324.533 547.201 325 545.588 325C544.068 325 542.855 324.62 541.948 323.86C541.041 323.1 540.528 322.107 540.408 320.88H543.128C543.248 321.413 543.515 321.84 543.928 322.16C544.355 322.48 544.895 322.64 545.548 322.64C546.335 322.64 546.928 322.393 547.328 321.9C547.728 321.407 547.928 320.753 547.928 319.94C547.928 319.113 547.721 318.487 547.308 318.06C546.908 317.62 546.315 317.4 545.528 317.4C544.968 317.4 544.501 317.54 544.128 317.82C543.755 318.1 543.488 318.473 543.328 318.94H540.648V310.38H549.688V312.84ZM557.419 313.74C558.246 313.74 558.973 313.907 559.599 314.24C560.226 314.56 560.719 314.98 561.079 315.5V313.92H563.899V325.08C563.899 326.107 563.693 327.02 563.279 327.82C562.866 328.633 562.246 329.273 561.419 329.74C560.593 330.22 559.593 330.46 558.419 330.46C556.846 330.46 555.553 330.093 554.539 329.36C553.539 328.627 552.973 327.627 552.839 326.36H555.619C555.766 326.867 556.079 327.267 556.559 327.56C557.053 327.867 557.646 328.02 558.339 328.02C559.153 328.02 559.813 327.773 560.319 327.28C560.826 326.8 561.079 326.067 561.079 325.08V323.36C560.719 323.88 560.219 324.313 559.579 324.66C558.953 325.007 558.233 325.18 557.419 325.18C556.486 325.18 555.633 324.94 554.859 324.46C554.086 323.98 553.473 323.307 553.019 322.44C552.579 321.56 552.359 320.553 552.359 319.42C552.359 318.3 552.579 317.307 553.019 316.44C553.473 315.573 554.079 314.907 554.839 314.44C555.613 313.973 556.473 313.74 557.419 313.74ZM561.079 319.46C561.079 318.78 560.946 318.2 560.679 317.72C560.413 317.227 560.053 316.853 559.599 316.6C559.146 316.333 558.659 316.2 558.139 316.2C557.619 316.2 557.139 316.327 556.699 316.58C556.259 316.833 555.899 317.207 555.619 317.7C555.353 318.18 555.219 318.753 555.219 319.42C555.219 320.087 555.353 320.673 555.619 321.18C555.899 321.673 556.259 322.053 556.699 322.32C557.153 322.587 557.633 322.72 558.139 322.72C558.659 322.72 559.146 322.593 559.599 322.34C560.053 322.073 560.413 321.7 560.679 321.22C560.946 320.727 561.079 320.14 561.079 319.46ZM569.434 315.54C569.794 315.007 570.287 314.573 570.914 314.24C571.554 313.907 572.281 313.74 573.094 313.74C574.041 313.74 574.894 313.973 575.654 314.44C576.427 314.907 577.034 315.573 577.474 316.44C577.927 317.293 578.154 318.287 578.154 319.42C578.154 320.553 577.927 321.56 577.474 322.44C577.034 323.307 576.427 323.98 575.654 324.46C574.894 324.94 574.041 325.18 573.094 325.18C572.267 325.18 571.541 325.02 570.914 324.7C570.301 324.367 569.807 323.94 569.434 323.42V325H566.634V310.2H569.434V315.54ZM575.294 319.42C575.294 318.753 575.154 318.18 574.874 317.7C574.607 317.207 574.247 316.833 573.794 316.58C573.354 316.327 572.874 316.2 572.354 316.2C571.847 316.2 571.367 316.333 570.914 316.6C570.474 316.853 570.114 317.227 569.834 317.72C569.567 318.213 569.434 318.793 569.434 319.46C569.434 320.127 569.567 320.707 569.834 321.2C570.114 321.693 570.474 322.073 570.914 322.34C571.367 322.593 571.847 322.72 572.354 322.72C572.874 322.72 573.354 322.587 573.794 322.32C574.247 322.053 574.607 321.673 574.874 321.18C575.154 320.687 575.294 320.1 575.294 319.42Z" fill="#004181"/>
<path d="M480.88 347.108C480.264 347.108 479.704 346.968 479.2 346.688C478.704 346.408 478.312 346.012 478.024 345.5C477.744 344.98 477.604 344.38 477.604 343.7C477.604 343.028 477.748 342.436 478.036 341.924C478.332 341.404 478.732 341.008 479.236 340.736C479.74 340.456 480.304 340.316 480.928 340.316C481.552 340.316 482.116 340.456 482.62 340.736C483.124 341.008 483.52 341.4 483.808 341.912C484.104 342.424 484.252 343.02 484.252 343.7C484.252 344.38 484.1 344.98 483.796 345.5C483.5 346.012 483.096 346.408 482.584 346.688C482.072 346.968 481.504 347.108 480.88 347.108ZM480.88 346.148C481.272 346.148 481.64 346.056 481.984 345.872C482.328 345.688 482.604 345.412 482.812 345.044C483.028 344.676 483.136 344.228 483.136 343.7C483.136 343.172 483.032 342.724 482.824 342.356C482.616 341.988 482.344 341.716 482.008 341.54C481.672 341.356 481.308 341.264 480.916 341.264C480.516 341.264 480.148 341.356 479.812 341.54C479.484 341.716 479.22 341.988 479.02 342.356C478.82 342.724 478.72 343.172 478.72 343.7C478.72 344.236 478.816 344.688 479.008 345.056C479.208 345.424 479.472 345.7 479.8 345.884C480.128 346.06 480.488 346.148 480.88 346.148ZM488.364 341.324H486.984V347H485.892V341.324H485.04V340.424H485.892V339.956C485.892 339.22 486.08 338.684 486.456 338.348C486.84 338.004 487.452 337.832 488.292 337.832V338.744C487.812 338.744 487.472 338.84 487.272 339.032C487.08 339.216 486.984 339.524 486.984 339.956V340.424H488.364V341.324ZM492.368 339.32V338.324H494.624V347H493.52V339.32H492.368ZM496.5 342.572C496.5 341.196 496.724 340.124 497.172 339.356C497.62 338.58 498.404 338.192 499.524 338.192C500.636 338.192 501.416 338.58 501.864 339.356C502.312 340.124 502.536 341.196 502.536 342.572C502.536 343.972 502.312 345.06 501.864 345.836C501.416 346.612 500.636 347 499.524 347C498.404 347 497.62 346.612 497.172 345.836C496.724 345.06 496.5 343.972 496.5 342.572ZM501.456 342.572C501.456 341.876 501.408 341.288 501.312 340.808C501.224 340.32 501.036 339.928 500.748 339.632C500.468 339.336 500.06 339.188 499.524 339.188C498.98 339.188 498.564 339.336 498.276 339.632C497.996 339.928 497.808 340.32 497.712 340.808C497.624 341.288 497.58 341.876 497.58 342.572C497.58 343.292 497.624 343.896 497.712 344.384C497.808 344.872 497.996 345.264 498.276 345.56C498.564 345.856 498.98 346.004 499.524 346.004C500.06 346.004 500.468 345.856 500.748 345.56C501.036 345.264 501.224 344.872 501.312 344.384C501.408 343.896 501.456 343.292 501.456 342.572ZM504.035 342.572C504.035 341.196 504.259 340.124 504.707 339.356C505.155 338.58 505.939 338.192 507.059 338.192C508.171 338.192 508.951 338.58 509.399 339.356C509.847 340.124 510.071 341.196 510.071 342.572C510.071 343.972 509.847 345.06 509.399 345.836C508.951 346.612 508.171 347 507.059 347C505.939 347 505.155 346.612 504.707 345.836C504.259 345.06 504.035 343.972 504.035 342.572ZM508.991 342.572C508.991 341.876 508.943 341.288 508.847 340.808C508.759 340.32 508.571 339.928 508.283 339.632C508.003 339.336 507.595 339.188 507.059 339.188C506.515 339.188 506.099 339.336 505.811 339.632C505.531 339.928 505.343 340.32 505.247 340.808C505.159 341.288 505.115 341.876 505.115 342.572C505.115 343.292 505.159 343.896 505.247 344.384C505.343 344.872 505.531 345.264 505.811 345.56C506.099 345.856 506.515 346.004 507.059 346.004C507.595 346.004 508.003 345.856 508.283 345.56C508.571 345.264 508.759 344.872 508.847 344.384C508.943 343.896 508.991 343.292 508.991 342.572ZM514.462 340.316C515.03 340.316 515.526 340.44 515.95 340.688C516.382 340.936 516.702 341.248 516.91 341.624V340.424H518.014V347.144C518.014 347.744 517.886 348.276 517.63 348.74C517.374 349.212 517.006 349.58 516.526 349.844C516.054 350.108 515.502 350.24 514.87 350.24C514.006 350.24 513.286 350.036 512.71 349.628C512.134 349.22 511.794 348.664 511.69 347.96H512.77C512.89 348.36 513.138 348.68 513.514 348.92C513.89 349.168 514.342 349.292 514.87 349.292C515.47 349.292 515.958 349.104 516.334 348.728C516.718 348.352 516.91 347.824 516.91 347.144V345.764C516.694 346.148 516.374 346.468 515.95 346.724C515.526 346.98 515.03 347.108 514.462 347.108C513.878 347.108 513.346 346.964 512.866 346.676C512.394 346.388 512.022 345.984 511.75 345.464C511.478 344.944 511.342 344.352 511.342 343.688C511.342 343.016 511.478 342.428 511.75 341.924C512.022 341.412 512.394 341.016 512.866 340.736C513.346 340.456 513.878 340.316 514.462 340.316ZM516.91 343.7C516.91 343.204 516.81 342.772 516.61 342.404C516.41 342.036 516.138 341.756 515.794 341.564C515.458 341.364 515.086 341.264 514.678 341.264C514.27 341.264 513.898 341.36 513.562 341.552C513.226 341.744 512.958 342.024 512.758 342.392C512.558 342.76 512.458 343.192 512.458 343.688C512.458 344.192 512.558 344.632 512.758 345.008C512.958 345.376 513.226 345.66 513.562 345.86C513.898 346.052 514.27 346.148 514.678 346.148C515.086 346.148 515.458 346.052 515.794 345.86C516.138 345.66 516.41 345.376 516.61 345.008C516.81 344.632 516.91 344.196 516.91 343.7ZM520.952 341.648C521.176 341.256 521.504 340.936 521.936 340.688C522.368 340.44 522.86 340.316 523.412 340.316C524.004 340.316 524.536 340.456 525.008 340.736C525.48 341.016 525.852 341.412 526.124 341.924C526.396 342.428 526.532 343.016 526.532 343.688C526.532 344.352 526.396 344.944 526.124 345.464C525.852 345.984 525.476 346.388 524.996 346.676C524.524 346.964 523.996 347.108 523.412 347.108C522.844 347.108 522.344 346.984 521.912 346.736C521.488 346.488 521.168 346.172 520.952 345.788V347H519.86V338.12H520.952V341.648ZM525.416 343.688C525.416 343.192 525.316 342.76 525.116 342.392C524.916 342.024 524.644 341.744 524.3 341.552C523.964 341.36 523.592 341.264 523.184 341.264C522.784 341.264 522.412 341.364 522.068 341.564C521.732 341.756 521.46 342.04 521.252 342.416C521.052 342.784 520.952 343.212 520.952 343.7C520.952 344.196 521.052 344.632 521.252 345.008C521.46 345.376 521.732 345.66 522.068 345.86C522.412 346.052 522.784 346.148 523.184 346.148C523.592 346.148 523.964 346.052 524.3 345.86C524.644 345.66 524.916 345.376 525.116 345.008C525.316 344.632 525.416 344.192 525.416 343.688ZM533.496 347.108C532.992 347.108 532.54 347.024 532.14 346.856C531.74 346.68 531.424 346.44 531.192 346.136C530.96 345.824 530.832 345.468 530.808 345.068H531.936C531.968 345.396 532.12 345.664 532.392 345.872C532.672 346.08 533.036 346.184 533.484 346.184C533.9 346.184 534.228 346.092 534.468 345.908C534.708 345.724 534.828 345.492 534.828 345.212C534.828 344.924 534.7 344.712 534.444 344.576C534.188 344.432 533.792 344.292 533.256 344.156C532.768 344.028 532.368 343.9 532.056 343.772C531.752 343.636 531.488 343.44 531.264 343.184C531.048 342.92 530.94 342.576 530.94 342.152C530.94 341.816 531.04 341.508 531.24 341.228C531.44 340.948 531.724 340.728 532.092 340.568C532.46 340.4 532.88 340.316 533.352 340.316C534.08 340.316 534.668 340.5 535.116 340.868C535.564 341.236 535.804 341.74 535.836 342.38H534.744C534.72 342.036 534.58 341.76 534.324 341.552C534.076 341.344 533.74 341.24 533.316 341.24C532.924 341.24 532.612 341.324 532.38 341.492C532.148 341.66 532.032 341.88 532.032 342.152C532.032 342.368 532.1 342.548 532.236 342.692C532.38 342.828 532.556 342.94 532.764 343.028C532.98 343.108 533.276 343.2 533.652 343.304C534.124 343.432 534.508 343.56 534.804 343.688C535.1 343.808 535.352 343.992 535.56 344.24C535.776 344.488 535.888 344.812 535.896 345.212C535.896 345.572 535.796 345.896 535.596 346.184C535.396 346.472 535.112 346.7 534.744 346.868C534.384 347.028 533.968 347.108 533.496 347.108ZM538.77 341.324V345.2C538.77 345.52 538.838 345.748 538.974 345.884C539.11 346.012 539.346 346.076 539.682 346.076H540.486V347H539.502C538.894 347 538.438 346.86 538.134 346.58C537.83 346.3 537.678 345.84 537.678 345.2V341.324H536.826V340.424H537.678V338.768H538.77V340.424H540.486V341.324H538.77ZM544.677 347.108C544.061 347.108 543.501 346.968 542.997 346.688C542.501 346.408 542.109 346.012 541.821 345.5C541.541 344.98 541.401 344.38 541.401 343.7C541.401 343.028 541.545 342.436 541.833 341.924C542.129 341.404 542.529 341.008 543.033 340.736C543.537 340.456 544.101 340.316 544.725 340.316C545.349 340.316 545.913 340.456 546.417 340.736C546.921 341.008 547.317 341.4 547.605 341.912C547.901 342.424 548.049 343.02 548.049 343.7C548.049 344.38 547.897 344.98 547.593 345.5C547.297 346.012 546.893 346.408 546.381 346.688C545.869 346.968 545.301 347.108 544.677 347.108ZM544.677 346.148C545.069 346.148 545.437 346.056 545.781 345.872C546.125 345.688 546.401 345.412 546.609 345.044C546.825 344.676 546.933 344.228 546.933 343.7C546.933 343.172 546.829 342.724 546.621 342.356C546.413 341.988 546.141 341.716 545.805 341.54C545.469 341.356 545.105 341.264 544.713 341.264C544.313 341.264 543.945 341.356 543.609 341.54C543.281 341.716 543.017 341.988 542.817 342.356C542.617 342.724 542.517 343.172 542.517 343.7C542.517 344.236 542.613 344.688 542.805 345.056C543.005 345.424 543.269 345.7 543.597 345.884C543.925 346.06 544.285 346.148 544.677 346.148ZM550.577 341.492C550.769 341.116 551.041 340.824 551.393 340.616C551.753 340.408 552.189 340.304 552.701 340.304V341.432H552.413C551.189 341.432 550.577 342.096 550.577 343.424V347H549.485V340.424H550.577V341.492ZM553.553 343.688C553.553 343.016 553.689 342.428 553.961 341.924C554.233 341.412 554.605 341.016 555.077 340.736C555.557 340.456 556.089 340.316 556.673 340.316C557.249 340.316 557.749 340.44 558.173 340.688C558.597 340.936 558.913 341.248 559.121 341.624V340.424H560.225V347H559.121V345.776C558.905 346.16 558.581 346.48 558.149 346.736C557.725 346.984 557.229 347.108 556.661 347.108C556.077 347.108 555.549 346.964 555.077 346.676C554.605 346.388 554.233 345.984 553.961 345.464C553.689 344.944 553.553 344.352 553.553 343.688ZM559.121 343.7C559.121 343.204 559.021 342.772 558.821 342.404C558.621 342.036 558.349 341.756 558.005 341.564C557.669 341.364 557.297 341.264 556.889 341.264C556.481 341.264 556.109 341.36 555.773 341.552C555.437 341.744 555.169 342.024 554.969 342.392C554.769 342.76 554.669 343.192 554.669 343.688C554.669 344.192 554.769 344.632 554.969 345.008C555.169 345.376 555.437 345.66 555.773 345.86C556.109 346.052 556.481 346.148 556.889 346.148C557.297 346.148 557.669 346.052 558.005 345.86C558.349 345.66 558.621 345.376 558.821 345.008C559.021 344.632 559.121 344.196 559.121 343.7ZM564.782 340.316C565.35 340.316 565.846 340.44 566.27 340.688C566.702 340.936 567.022 341.248 567.23 341.624V340.424H568.334V347.144C568.334 347.744 568.206 348.276 567.95 348.74C567.694 349.212 567.326 349.58 566.846 349.844C566.374 350.108 565.822 350.24 565.19 350.24C564.326 350.24 563.606 350.036 563.03 349.628C562.454 349.22 562.114 348.664 562.01 347.96H563.09C563.21 348.36 563.458 348.68 563.834 348.92C564.21 349.168 564.662 349.292 565.19 349.292C565.79 349.292 566.278 349.104 566.654 348.728C567.038 348.352 567.23 347.824 567.23 347.144V345.764C567.014 346.148 566.694 346.468 566.27 346.724C565.846 346.98 565.35 347.108 564.782 347.108C564.198 347.108 563.666 346.964 563.186 346.676C562.714 346.388 562.342 345.984 562.07 345.464C561.798 344.944 561.662 344.352 561.662 343.688C561.662 343.016 561.798 342.428 562.07 341.924C562.342 341.412 562.714 341.016 563.186 340.736C563.666 340.456 564.198 340.316 564.782 340.316ZM567.23 343.7C567.23 343.204 567.13 342.772 566.93 342.404C566.73 342.036 566.458 341.756 566.114 341.564C565.778 341.364 565.406 341.264 564.998 341.264C564.59 341.264 564.218 341.36 563.882 341.552C563.546 341.744 563.278 342.024 563.078 342.392C562.878 342.76 562.778 343.192 562.778 343.688C562.778 344.192 562.878 344.632 563.078 345.008C563.278 345.376 563.546 345.66 563.882 345.86C564.218 346.052 564.59 346.148 564.998 346.148C565.406 346.148 565.778 346.052 566.114 345.86C566.458 345.66 566.73 345.376 566.93 345.008C567.13 344.632 567.23 344.196 567.23 343.7ZM576.18 343.46C576.18 343.668 576.168 343.888 576.144 344.12H570.888C570.928 344.768 571.148 345.276 571.548 345.644C571.956 346.004 572.448 346.184 573.024 346.184C573.496 346.184 573.888 346.076 574.2 345.86C574.52 345.636 574.744 345.34 574.872 344.972H576.048C575.872 345.604 575.52 346.12 574.992 346.52C574.464 346.912 573.808 347.108 573.024 347.108C572.4 347.108 571.84 346.968 571.344 346.688C570.856 346.408 570.472 346.012 570.192 345.5C569.912 344.98 569.772 344.38 569.772 343.7C569.772 343.02 569.908 342.424 570.18 341.912C570.452 341.4 570.832 341.008 571.32 340.736C571.816 340.456 572.384 340.316 573.024 340.316C573.648 340.316 574.2 340.452 574.68 340.724C575.16 340.996 575.528 341.372 575.784 341.852C576.048 342.324 576.18 342.86 576.18 343.46ZM575.052 343.232C575.052 342.816 574.96 342.46 574.776 342.164C574.592 341.86 574.34 341.632 574.02 341.48C573.708 341.32 573.36 341.24 572.976 341.24C572.424 341.24 571.952 341.416 571.56 341.768C571.176 342.12 570.956 342.608 570.9 343.232H575.052ZM586.652 340.424V347H585.56V346.028C585.352 346.364 585.06 346.628 584.684 346.82C584.316 347.004 583.908 347.096 583.46 347.096C582.948 347.096 582.488 346.992 582.08 346.784C581.672 346.568 581.348 346.248 581.108 345.824C580.876 345.4 580.76 344.884 580.76 344.276V340.424H581.84V344.132C581.84 344.78 582.004 345.28 582.332 345.632C582.66 345.976 583.108 346.148 583.676 346.148C584.26 346.148 584.72 345.968 585.056 345.608C585.392 345.248 585.56 344.724 585.56 344.036V340.424H586.652ZM590.824 347.108C590.32 347.108 589.868 347.024 589.468 346.856C589.068 346.68 588.752 346.44 588.52 346.136C588.288 345.824 588.16 345.468 588.136 345.068H589.264C589.296 345.396 589.448 345.664 589.72 345.872C590 346.08 590.364 346.184 590.812 346.184C591.228 346.184 591.556 346.092 591.796 345.908C592.036 345.724 592.156 345.492 592.156 345.212C592.156 344.924 592.028 344.712 591.772 344.576C591.516 344.432 591.12 344.292 590.584 344.156C590.096 344.028 589.696 343.9 589.384 343.772C589.08 343.636 588.816 343.44 588.592 343.184C588.376 342.92 588.268 342.576 588.268 342.152C588.268 341.816 588.368 341.508 588.568 341.228C588.768 340.948 589.052 340.728 589.42 340.568C589.788 340.4 590.208 340.316 590.68 340.316C591.408 340.316 591.996 340.5 592.444 340.868C592.892 341.236 593.132 341.74 593.164 342.38H592.072C592.048 342.036 591.908 341.76 591.652 341.552C591.404 341.344 591.068 341.24 590.644 341.24C590.252 341.24 589.94 341.324 589.708 341.492C589.476 341.66 589.36 341.88 589.36 342.152C589.36 342.368 589.428 342.548 589.564 342.692C589.708 342.828 589.884 342.94 590.092 343.028C590.308 343.108 590.604 343.2 590.98 343.304C591.452 343.432 591.836 343.56 592.132 343.688C592.428 343.808 592.68 343.992 592.888 344.24C593.104 344.488 593.216 344.812 593.224 345.212C593.224 345.572 593.124 345.896 592.924 346.184C592.724 346.472 592.44 346.7 592.072 346.868C591.712 347.028 591.296 347.108 590.824 347.108ZM600.766 343.46C600.766 343.668 600.754 343.888 600.73 344.12H595.474C595.514 344.768 595.734 345.276 596.134 345.644C596.542 346.004 597.034 346.184 597.61 346.184C598.082 346.184 598.474 346.076 598.786 345.86C599.106 345.636 599.33 345.34 599.458 344.972H600.634C600.458 345.604 600.106 346.12 599.578 346.52C599.05 346.912 598.394 347.108 597.61 347.108C596.986 347.108 596.426 346.968 595.93 346.688C595.442 346.408 595.058 346.012 594.778 345.5C594.498 344.98 594.358 344.38 594.358 343.7C594.358 343.02 594.494 342.424 594.766 341.912C595.038 341.4 595.418 341.008 595.906 340.736C596.402 340.456 596.97 340.316 597.61 340.316C598.234 340.316 598.786 340.452 599.266 340.724C599.746 340.996 600.114 341.372 600.37 341.852C600.634 342.324 600.766 342.86 600.766 343.46ZM599.638 343.232C599.638 342.816 599.546 342.46 599.362 342.164C599.178 341.86 598.926 341.632 598.606 341.48C598.294 341.32 597.946 341.24 597.562 341.24C597.01 341.24 596.538 341.416 596.146 341.768C595.762 342.12 595.542 342.608 595.486 343.232H599.638ZM601.799 343.688C601.799 343.016 601.935 342.428 602.207 341.924C602.479 341.412 602.851 341.016 603.323 340.736C603.803 340.456 604.339 340.316 604.931 340.316C605.443 340.316 605.919 340.436 606.359 340.676C606.799 340.908 607.135 341.216 607.367 341.6V338.12H608.471V347H607.367V345.764C607.151 346.156 606.831 346.48 606.407 346.736C605.983 346.984 605.487 347.108 604.919 347.108C604.335 347.108 603.803 346.964 603.323 346.676C602.851 346.388 602.479 345.984 602.207 345.464C601.935 344.944 601.799 344.352 601.799 343.688ZM607.367 343.7C607.367 343.204 607.267 342.772 607.067 342.404C606.867 342.036 606.595 341.756 606.251 341.564C605.915 341.364 605.543 341.264 605.135 341.264C604.727 341.264 604.355 341.36 604.019 341.552C603.683 341.744 603.415 342.024 603.215 342.392C603.015 342.76 602.915 343.192 602.915 343.688C602.915 344.192 603.015 344.632 603.215 345.008C603.415 345.376 603.683 345.66 604.019 345.86C604.355 346.052 604.727 346.148 605.135 346.148C605.543 346.148 605.915 346.052 606.251 345.86C606.595 345.66 606.867 345.376 607.067 345.008C607.267 344.632 607.367 344.196 607.367 343.7ZM610.665 347.072C610.457 347.072 610.281 347 610.137 346.856C609.993 346.712 609.921 346.536 609.921 346.328C609.921 346.12 609.993 345.944 610.137 345.8C610.281 345.656 610.457 345.584 610.665 345.584C610.865 345.584 611.033 345.656 611.169 345.8C611.313 345.944 611.385 346.12 611.385 346.328C611.385 346.536 611.313 346.712 611.169 346.856C611.033 347 610.865 347.072 610.665 347.072Z" fill="#696D70"/>
<g filter="url(#filter5_d_908_913)">
<rect x="86" y="442" width="97" height="97" rx="8" fill="#D9E8FF" fill-opacity="0.78"/>
<g clip-path="url(#clip1_908_913)">
<path d="M132.472 491.738C131.829 491.094 131.065 490.583 130.224 490.235C129.383 489.886 128.482 489.707 127.571 489.707C126.661 489.707 125.76 489.886 124.919 490.235C124.078 490.583 123.314 491.094 122.671 491.738L106.873 507.535C107.087 510.431 108.386 513.14 110.511 515.12C112.635 517.1 115.429 518.205 118.333 518.214H150.667C152.929 518.214 155.141 517.545 157.025 516.29L132.472 491.738Z" fill="#156FF6"/>
<path d="M148.357 481.262C150.908 481.262 152.976 479.194 152.976 476.643C152.976 474.092 150.908 472.024 148.357 472.024C145.806 472.024 143.738 474.092 143.738 476.643C143.738 479.194 145.806 481.262 148.357 481.262Z" fill="#156FF6"/>
<path d="M150.667 462.786H118.333C115.272 462.789 112.337 464.007 110.172 466.172C108.007 468.337 106.789 471.272 106.786 474.333V501.091L119.405 488.472C120.477 487.4 121.75 486.549 123.152 485.968C124.553 485.388 126.055 485.089 127.571 485.089C129.088 485.089 130.59 485.388 131.991 485.968C133.392 486.549 134.666 487.4 135.738 488.472L160.29 513.025C161.545 511.141 162.214 508.929 162.214 506.667V474.333C162.211 471.272 160.993 468.337 158.828 466.172C156.663 464.007 153.728 462.789 150.667 462.786ZM148.357 485.881C146.53 485.881 144.744 485.339 143.225 484.324C141.706 483.309 140.521 481.866 139.822 480.178C139.123 478.49 138.94 476.633 139.297 474.841C139.653 473.049 140.533 471.402 141.825 470.11C143.117 468.818 144.763 467.939 146.555 467.582C148.347 467.226 150.204 467.409 151.892 468.108C153.58 468.807 155.023 469.991 156.038 471.51C157.053 473.03 157.595 474.816 157.595 476.643C157.595 479.093 156.622 481.443 154.889 483.175C153.157 484.908 150.807 485.881 148.357 485.881Z" fill="#156FF6"/>
</g>
</g>
<g filter="url(#filter6_d_908_913)">
<rect x="302" y="477" width="296" height="68" rx="8" fill="white"/>
</g>
<circle cx="332.5" cy="510.5" r="14.5" fill="#03AEF7"/>
<path d="M339.028 505.228L336.298 515H333.988L332.154 508.042L330.236 515L327.94 515.014L325.308 505.228H327.408L329.13 512.816L331.118 505.228H333.302L335.178 512.774L336.914 505.228H339.028Z" fill="white"/>
<path d="M362.854 508.168C362.854 508.663 362.737 509.129 362.504 509.568C362.271 510.007 361.897 510.366 361.384 510.646C360.871 510.917 360.213 511.052 359.41 511.052H357.646V515H356.05V505.27H359.41C360.157 505.27 360.787 505.401 361.3 505.662C361.823 505.914 362.21 506.259 362.462 506.698C362.723 507.137 362.854 507.627 362.854 508.168ZM359.41 509.75C360.017 509.75 360.469 509.615 360.768 509.344C361.067 509.064 361.216 508.672 361.216 508.168C361.216 507.104 360.614 506.572 359.41 506.572H357.646V509.75H359.41ZM365.972 508.406C366.206 508.014 366.514 507.711 366.896 507.496C367.288 507.272 367.75 507.16 368.282 507.16V508.812H367.876C367.251 508.812 366.775 508.971 366.448 509.288C366.131 509.605 365.972 510.156 365.972 510.94V515H364.376V507.286H365.972V508.406ZM373.095 515.126C372.367 515.126 371.709 514.963 371.121 514.636C370.533 514.3 370.071 513.833 369.735 513.236C369.399 512.629 369.231 511.929 369.231 511.136C369.231 510.352 369.404 509.657 369.749 509.05C370.095 508.443 370.566 507.977 371.163 507.65C371.761 507.323 372.428 507.16 373.165 507.16C373.903 507.16 374.57 507.323 375.167 507.65C375.765 507.977 376.236 508.443 376.581 509.05C376.927 509.657 377.099 510.352 377.099 511.136C377.099 511.92 376.922 512.615 376.567 513.222C376.213 513.829 375.727 514.3 375.111 514.636C374.505 514.963 373.833 515.126 373.095 515.126ZM373.095 513.74C373.506 513.74 373.889 513.642 374.243 513.446C374.607 513.25 374.901 512.956 375.125 512.564C375.349 512.172 375.461 511.696 375.461 511.136C375.461 510.576 375.354 510.105 375.139 509.722C374.925 509.33 374.64 509.036 374.285 508.84C373.931 508.644 373.548 508.546 373.137 508.546C372.727 508.546 372.344 508.644 371.989 508.84C371.644 509.036 371.369 509.33 371.163 509.722C370.958 510.105 370.855 510.576 370.855 511.136C370.855 511.967 371.065 512.611 371.485 513.068C371.915 513.516 372.451 513.74 373.095 513.74ZM379.489 506.264C379.2 506.264 378.957 506.166 378.761 505.97C378.565 505.774 378.467 505.531 378.467 505.242C378.467 504.953 378.565 504.71 378.761 504.514C378.957 504.318 379.2 504.22 379.489 504.22C379.769 504.22 380.007 504.318 380.203 504.514C380.399 504.71 380.497 504.953 380.497 505.242C380.497 505.531 380.399 505.774 380.203 505.97C380.007 506.166 379.769 506.264 379.489 506.264ZM380.273 516.512C380.273 517.268 380.082 517.814 379.699 518.15C379.326 518.495 378.78 518.668 378.061 518.668H377.235V517.324H377.781C378.108 517.324 378.336 517.259 378.467 517.128C378.607 517.007 378.677 516.801 378.677 516.512V507.286H380.273V516.512ZM389.438 510.954C389.438 511.243 389.42 511.505 389.382 511.738H383.488C383.535 512.354 383.764 512.849 384.174 513.222C384.585 513.595 385.089 513.782 385.686 513.782C386.545 513.782 387.152 513.423 387.506 512.704H389.228C388.995 513.413 388.57 513.997 387.954 514.454C387.348 514.902 386.592 515.126 385.686 515.126C384.949 515.126 384.286 514.963 383.698 514.636C383.12 514.3 382.662 513.833 382.326 513.236C382 512.629 381.836 511.929 381.836 511.136C381.836 510.343 381.995 509.647 382.312 509.05C382.639 508.443 383.092 507.977 383.67 507.65C384.258 507.323 384.93 507.16 385.686 507.16C386.414 507.16 387.063 507.319 387.632 507.636C388.202 507.953 388.645 508.401 388.962 508.98C389.28 509.549 389.438 510.207 389.438 510.954ZM387.772 510.45C387.763 509.862 387.553 509.391 387.142 509.036C386.732 508.681 386.223 508.504 385.616 508.504C385.066 508.504 384.594 508.681 384.202 509.036C383.81 509.381 383.577 509.853 383.502 510.45H387.772ZM390.477 511.136C390.477 510.343 390.636 509.647 390.953 509.05C391.28 508.443 391.728 507.977 392.297 507.65C392.866 507.323 393.52 507.16 394.257 507.16C395.19 507.16 395.96 507.384 396.567 507.832C397.183 508.271 397.598 508.901 397.813 509.722H396.091C395.951 509.339 395.727 509.041 395.419 508.826C395.111 508.611 394.724 508.504 394.257 508.504C393.604 508.504 393.081 508.737 392.689 509.204C392.306 509.661 392.115 510.305 392.115 511.136C392.115 511.967 392.306 512.615 392.689 513.082C393.081 513.549 393.604 513.782 394.257 513.782C395.181 513.782 395.792 513.376 396.091 512.564H397.813C397.589 513.348 397.169 513.973 396.553 514.44C395.937 514.897 395.172 515.126 394.257 515.126C393.52 515.126 392.866 514.963 392.297 514.636C391.728 514.3 391.28 513.833 390.953 513.236C390.636 512.629 390.477 511.929 390.477 511.136ZM401.266 508.588V512.858C401.266 513.147 401.331 513.357 401.462 513.488C401.602 513.609 401.835 513.67 402.162 513.67H403.142V515H401.882C401.163 515 400.612 514.832 400.23 514.496C399.847 514.16 399.656 513.614 399.656 512.858V508.588H398.746V507.286H399.656V505.368H401.266V507.286H403.142V508.588H401.266ZM413.457 510.002C413.98 510.095 414.423 510.371 414.787 510.828C415.151 511.285 415.333 511.803 415.333 512.382C415.333 512.877 415.203 513.325 414.941 513.726C414.689 514.118 414.321 514.431 413.835 514.664C413.35 514.888 412.785 515 412.141 515H408.249V505.27H411.959C412.622 505.27 413.191 505.382 413.667 505.606C414.143 505.83 414.503 506.133 414.745 506.516C414.988 506.889 415.109 507.309 415.109 507.776C415.109 508.336 414.96 508.803 414.661 509.176C414.363 509.549 413.961 509.825 413.457 510.002ZM409.845 509.358H411.819C412.342 509.358 412.748 509.241 413.037 509.008C413.336 508.765 413.485 508.42 413.485 507.972C413.485 507.533 413.336 507.193 413.037 506.95C412.748 506.698 412.342 506.572 411.819 506.572H409.845V509.358ZM412.001 513.698C412.543 513.698 412.967 513.567 413.275 513.306C413.583 513.045 413.737 512.681 413.737 512.214C413.737 511.738 413.574 511.36 413.247 511.08C412.921 510.8 412.487 510.66 411.945 510.66H409.845V513.698H412.001ZM418.664 508.406C418.897 508.014 419.205 507.711 419.588 507.496C419.98 507.272 420.442 507.16 420.974 507.16V508.812H420.568C419.942 508.812 419.466 508.971 419.14 509.288C418.822 509.605 418.664 510.156 418.664 510.94V515H417.068V507.286H418.664V508.406ZM423.253 506.264C422.963 506.264 422.721 506.166 422.525 505.97C422.329 505.774 422.231 505.531 422.231 505.242C422.231 504.953 422.329 504.71 422.525 504.514C422.721 504.318 422.963 504.22 423.253 504.22C423.533 504.22 423.771 504.318 423.967 504.514C424.163 504.71 424.261 504.953 424.261 505.242C424.261 505.531 424.163 505.774 423.967 505.97C423.771 506.166 423.533 506.264 423.253 506.264ZM424.037 507.286V515H422.441V507.286H424.037ZM433.202 510.954C433.202 511.243 433.183 511.505 433.146 511.738H427.252C427.299 512.354 427.527 512.849 427.938 513.222C428.349 513.595 428.853 513.782 429.45 513.782C430.309 513.782 430.915 513.423 431.27 512.704H432.992C432.759 513.413 432.334 513.997 431.718 514.454C431.111 514.902 430.355 515.126 429.45 515.126C428.713 515.126 428.05 514.963 427.462 514.636C426.883 514.3 426.426 513.833 426.09 513.236C425.763 512.629 425.6 511.929 425.6 511.136C425.6 510.343 425.759 509.647 426.076 509.05C426.403 508.443 426.855 507.977 427.434 507.65C428.022 507.323 428.694 507.16 429.45 507.16C430.178 507.16 430.827 507.319 431.396 507.636C431.965 507.953 432.409 508.401 432.726 508.98C433.043 509.549 433.202 510.207 433.202 510.954ZM431.536 510.45C431.527 509.862 431.317 509.391 430.906 509.036C430.495 508.681 429.987 508.504 429.38 508.504C428.829 508.504 428.358 508.681 427.966 509.036C427.574 509.381 427.341 509.853 427.266 510.45H431.536ZM438.007 508.588H436.579V515H434.969V508.588H434.059V507.286H434.969V506.74C434.969 505.853 435.202 505.209 435.669 504.808C436.145 504.397 436.887 504.192 437.895 504.192V505.522C437.409 505.522 437.069 505.615 436.873 505.802C436.677 505.979 436.579 506.292 436.579 506.74V507.286H438.007V508.588ZM440.065 515.098C439.776 515.098 439.533 515 439.337 514.804C439.141 514.608 439.043 514.365 439.043 514.076C439.043 513.787 439.141 513.544 439.337 513.348C439.533 513.152 439.776 513.054 440.065 513.054C440.345 513.054 440.583 513.152 440.779 513.348C440.975 513.544 441.073 513.787 441.073 514.076C441.073 514.365 440.975 514.608 440.779 514.804C440.583 515 440.345 515.098 440.065 515.098ZM442.266 511.108C442.266 510.333 442.425 509.647 442.742 509.05C443.069 508.453 443.507 507.991 444.058 507.664C444.618 507.328 445.239 507.16 445.92 507.16C446.424 507.16 446.919 507.272 447.404 507.496C447.899 507.711 448.291 508 448.58 508.364V504.64H450.19V515H448.58V513.838C448.319 514.211 447.955 514.519 447.488 514.762C447.031 515.005 446.503 515.126 445.906 515.126C445.234 515.126 444.618 514.958 444.058 514.622C443.507 514.277 443.069 513.801 442.742 513.194C442.425 512.578 442.266 511.883 442.266 511.108ZM448.58 511.136C448.58 510.604 448.468 510.142 448.244 509.75C448.029 509.358 447.745 509.059 447.39 508.854C447.035 508.649 446.653 508.546 446.242 508.546C445.831 508.546 445.449 508.649 445.094 508.854C444.739 509.05 444.45 509.344 444.226 509.736C444.011 510.119 443.904 510.576 443.904 511.108C443.904 511.64 444.011 512.107 444.226 512.508C444.45 512.909 444.739 513.217 445.094 513.432C445.458 513.637 445.841 513.74 446.242 513.74C446.653 513.74 447.035 513.637 447.39 513.432C447.745 513.227 448.029 512.928 448.244 512.536C448.468 512.135 448.58 511.668 448.58 511.136ZM455.632 515.126C454.904 515.126 454.246 514.963 453.658 514.636C453.07 514.3 452.608 513.833 452.272 513.236C451.936 512.629 451.768 511.929 451.768 511.136C451.768 510.352 451.941 509.657 452.286 509.05C452.632 508.443 453.103 507.977 453.7 507.65C454.298 507.323 454.965 507.16 455.702 507.16C456.44 507.16 457.107 507.323 457.704 507.65C458.302 507.977 458.773 508.443 459.118 509.05C459.464 509.657 459.636 510.352 459.636 511.136C459.636 511.92 459.459 512.615 459.104 513.222C458.75 513.829 458.264 514.3 457.648 514.636C457.042 514.963 456.37 515.126 455.632 515.126ZM455.632 513.74C456.043 513.74 456.426 513.642 456.78 513.446C457.144 513.25 457.438 512.956 457.662 512.564C457.886 512.172 457.998 511.696 457.998 511.136C457.998 510.576 457.891 510.105 457.676 509.722C457.462 509.33 457.177 509.036 456.822 508.84C456.468 508.644 456.085 508.546 455.674 508.546C455.264 508.546 454.881 508.644 454.526 508.84C454.181 509.036 453.906 509.33 453.7 509.722C453.495 510.105 453.392 510.576 453.392 511.136C453.392 511.967 453.602 512.611 454.022 513.068C454.452 513.516 454.988 513.74 455.632 513.74ZM460.682 511.136C460.682 510.343 460.841 509.647 461.158 509.05C461.485 508.443 461.933 507.977 462.502 507.65C463.071 507.323 463.725 507.16 464.462 507.16C465.395 507.16 466.165 507.384 466.772 507.832C467.388 508.271 467.803 508.901 468.018 509.722H466.296C466.156 509.339 465.932 509.041 465.624 508.826C465.316 508.611 464.929 508.504 464.462 508.504C463.809 508.504 463.286 508.737 462.894 509.204C462.511 509.661 462.32 510.305 462.32 511.136C462.32 511.967 462.511 512.615 462.894 513.082C463.286 513.549 463.809 513.782 464.462 513.782C465.386 513.782 465.997 513.376 466.296 512.564H468.018C467.794 513.348 467.374 513.973 466.758 514.44C466.142 514.897 465.377 515.126 464.462 515.126C463.725 515.126 463.071 514.963 462.502 514.636C461.933 514.3 461.485 513.833 461.158 513.236C460.841 512.629 460.682 511.929 460.682 511.136ZM472.913 511.094L475.405 515H473.599L471.933 512.382L470.365 515H468.699L471.191 511.206L468.699 507.286H470.505L472.171 509.904L473.739 507.286H475.405L472.913 511.094Z" fill="#071625"/>
<path d="M570 506C570.396 506 570.782 505.883 571.111 505.663C571.44 505.443 571.696 505.131 571.848 504.765C571.999 504.4 572.039 503.998 571.962 503.61C571.884 503.222 571.694 502.865 571.414 502.586C571.135 502.306 570.778 502.116 570.39 502.038C570.002 501.961 569.6 502.001 569.235 502.152C568.869 502.304 568.557 502.56 568.337 502.889C568.117 503.218 568 503.604 568 504C568 504.53 568.211 505.039 568.586 505.414C568.961 505.789 569.47 506 570 506ZM570 516C569.604 516 569.218 516.117 568.889 516.337C568.56 516.557 568.304 516.869 568.152 517.235C568.001 517.6 567.961 518.002 568.038 518.39C568.116 518.778 568.306 519.135 568.586 519.414C568.865 519.694 569.222 519.884 569.61 519.962C569.998 520.039 570.4 519.999 570.765 519.848C571.131 519.696 571.443 519.44 571.663 519.111C571.883 518.782 572 518.396 572 518C572 517.47 571.789 516.961 571.414 516.586C571.039 516.211 570.53 516 570 516ZM570 509C569.604 509 569.218 509.117 568.889 509.337C568.56 509.557 568.304 509.869 568.152 510.235C568.001 510.6 567.961 511.002 568.038 511.39C568.116 511.778 568.306 512.135 568.586 512.414C568.865 512.694 569.222 512.884 569.61 512.962C569.998 513.039 570.4 512.999 570.765 512.848C571.131 512.696 571.443 512.44 571.663 512.111C571.883 511.782 572 511.396 572 511C572 510.47 571.789 509.961 571.414 509.586C571.039 509.211 570.53 509 570 509Z" fill="#696D70"/>
<defs>
<filter id="filter0_bi_908_913" x="-50" y="-50" width="886" height="625" filterUnits="userSpaceOnUse" color-interpolation-filters="sRGB">
<feFlood flood-opacity="0" result="BackgroundImageFix"/>
<feGaussianBlur in="BackgroundImageFix" stdDeviation="25"/>
<feComposite in2="SourceAlpha" operator="in" result="effect1_backgroundBlur_908_913"/>
<feBlend mode="normal" in="SourceGraphic" in2="effect1_backgroundBlur_908_913" result="shape"/>
<feColorMatrix in="SourceAlpha" type="matrix" values="0 0 0 0 0 0 0 0 0 0 0 0 0 0 0 0 0 0 127 0" result="hardAlpha"/>
<feOffset/>
<feGaussianBlur stdDeviation="25"/>
<feComposite in2="hardAlpha" operator="arithmetic" k2="-1" k3="1"/>
<feColorMatrix type="matrix" values="0 0 0 0 1 0 0 0 0 1 0 0 0 0 1 0 0 0 1 0"/>
<feBlend mode="normal" in2="shape" result="effect2_innerShadow_908_913"/>
</filter>
<filter id="filter1_d_908_913" x="92" y="226" width="230" height="189" filterUnits="userSpaceOnUse" color-interpolation-filters="sRGB">
<feFlood flood-opacity="0" result="BackgroundImageFix"/>
<feColorMatrix in="SourceAlpha" type="matrix" values="0 0 0 0 0 0 0 0 0 0 0 0 0 0 0 0 0 0 127 0" result="hardAlpha"/>
<feOffset dy="4"/>
<feGaussianBlur stdDeviation="20"/>
<feComposite in2="hardAlpha" operator="out"/>
<feColorMatrix type="matrix" values="0 0 0 0 0.247059 0 0 0 0 0.254902 0 0 0 0 0.258824 0 0 0 0.15 0"/>
<feBlend mode="normal" in2="BackgroundImageFix" result="effect1_dropShadow_908_913"/>
<feBlend mode="normal" in="SourceGraphic" in2="effect1_dropShadow_908_913" result="shape"/>
</filter>
<filter id="filter2_d_908_913" x="218" y="6" width="177" height="177" filterUnits="userSpaceOnUse" color-interpolation-filters="sRGB">
<feFlood flood-opacity="0" result="BackgroundImageFix"/>
<feColorMatrix in="SourceAlpha" type="matrix" values="0 0 0 0 0 0 0 0 0 0 0 0 0 0 0 0 0 0 127 0" result="hardAlpha"/>
<feOffset dy="4"/>
<feGaussianBlur stdDeviation="20"/>
<feComposite in2="hardAlpha" operator="out"/>
<feColorMatrix type="matrix" values="0 0 0 0 0.247059 0 0 0 0 0.254902 0 0 0 0 0.258824 0 0 0 0.15 0"/>
<feBlend mode="normal" in2="BackgroundImageFix" result="effect1_dropShadow_908_913"/>
<feBlend mode="normal" in="SourceGraphic" in2="effect1_dropShadow_908_913" result="shape"/>
</filter>
<filter id="filter3_d_908_913" x="364" y="113" width="362" height="355" filterUnits="userSpaceOnUse" color-interpolation-filters="sRGB">
<feFlood flood-opacity="0" result="BackgroundImageFix"/>
<feColorMatrix in="SourceAlpha" type="matrix" values="0 0 0 0 0 0 0 0 0 0 0 0 0 0 0 0 0 0 127 0" result="hardAlpha"/>
<feOffset dy="4"/>
<feGaussianBlur stdDeviation="20"/>
<feComposite in2="hardAlpha" operator="out"/>
<feColorMatrix type="matrix" values="0 0 0 0 0.247569 0 0 0 0 0.252993 0 0 0 0 0.258333 0 0 0 0.15 0"/>
<feBlend mode="normal" in2="BackgroundImageFix" result="effect1_dropShadow_908_913"/>
<feBlend mode="normal" in="SourceGraphic" in2="effect1_dropShadow_908_913" result="shape"/>
</filter>
<filter id="filter4_d_908_913" x="391" y="243" width="307" height="184" filterUnits="userSpaceOnUse" color-interpolation-filters="sRGB">
<feFlood flood-opacity="0" result="BackgroundImageFix"/>
<feColorMatrix in="SourceAlpha" type="matrix" values="0 0 0 0 0 0 0 0 0 0 0 0 0 0 0 0 0 0 127 0" result="hardAlpha"/>
<feOffset dy="4"/>
<feGaussianBlur stdDeviation="25"/>
<feComposite in2="hardAlpha" operator="out"/>
<feColorMatrix type="matrix" values="0 0 0 0 0 0 0 0 0 0 0 0 0 0 0 0 0 0 0.1 0"/>
<feBlend mode="normal" in2="BackgroundImageFix" result="effect1_dropShadow_908_913"/>
<feBlend mode="normal" in="SourceGraphic" in2="effect1_dropShadow_908_913" result="shape"/>
</filter>
<filter id="filter5_d_908_913" x="46" y="406" width="177" height="177" filterUnits="userSpaceOnUse" color-interpolation-filters="sRGB">
<feFlood flood-opacity="0" result="BackgroundImageFix"/>
<feColorMatrix in="SourceAlpha" type="matrix" values="0 0 0 0 0 0 0 0 0 0 0 0 0 0 0 0 0 0 127 0" result="hardAlpha"/>
<feOffset dy="4"/>
<feGaussianBlur stdDeviation="20"/>
<feComposite in2="hardAlpha" operator="out"/>
<feColorMatrix type="matrix" values="0 0 0 0 0.247059 0 0 0 0 0.254902 0 0 0 0 0.258824 0 0 0 0.15 0"/>
<feBlend mode="normal" in2="BackgroundImageFix" result="effect1_dropShadow_908_913"/>
<feBlend mode="normal" in="SourceGraphic" in2="effect1_dropShadow_908_913" result="shape"/>
</filter>
<filter id="filter6_d_908_913" x="262" y="441" width="376" height="148" filterUnits="userSpaceOnUse" color-interpolation-filters="sRGB">
<feFlood flood-opacity="0" result="BackgroundImageFix"/>
<feColorMatrix in="SourceAlpha" type="matrix" values="0 0 0 0 0 0 0 0 0 0 0 0 0 0 0 0 0 0 127 0" result="hardAlpha"/>
<feOffset dy="4"/>
<feGaussianBlur stdDeviation="20"/>
<feComposite in2="hardAlpha" operator="out"/>
<feColorMatrix type="matrix" values="0 0 0 0 0.247059 0 0 0 0 0.254902 0 0 0 0 0.258824 0 0 0 0.15 0"/>
<feBlend mode="normal" in2="BackgroundImageFix" result="effect1_dropShadow_908_913"/>
<feBlend mode="normal" in="SourceGraphic" in2="effect1_dropShadow_908_913" result="shape"/>
</filter>
<linearGradient id="paint0_linear_908_913" x1="405.235" y1="44.4109" x2="405.235" y2="525" gradientUnits="userSpaceOnUse">
<stop stop-color="#E0F4FD"/>
<stop offset="1" stop-color="#C1EDFF" stop-opacity="0"/>
</linearGradient>
<linearGradient id="paint1_linear_908_913" x1="544.5" y1="235" x2="544.5" y2="289.5" gradientUnits="userSpaceOnUse">
<stop stop-color="#F16021"/>
<stop offset="1" stop-color="#FE464B"/>
</linearGradient>
<clipPath id="clip0_908_913">
<rect width="62.3571" height="55.4286" fill="white" transform="translate(273.589 62.7856)"/>
</clipPath>
<clipPath id="clip1_908_913">
<rect width="55.4286" height="55.4286" fill="white" transform="translate(106.786 462.786)"/>
</clipPath>
</defs>
</svg>
