<svg width="111" height="114" viewBox="0 0 111 114" fill="none" xmlns="http://www.w3.org/2000/svg">
<rect x="0.138733" y="0.369629" width="110" height="113" rx="20" fill="#F6F6F6"/>
<path d="M64.92 70.6808L70.8346 36.1454C70.9671 35.3718 70.1975 34.7541 69.4709 35.0508L32.0894 50.3187C31.3089 50.6375 31.2489 51.7197 31.9894 52.1228L42.7563 57.9833C43.0094 58.1211 43.1908 58.3614 43.254 58.6426L45.4013 68.2056C45.5646 68.9331 46.438 69.2324 47.0132 68.758L52.9348 63.8743C53.3026 63.571 53.8333 63.5695 54.2028 63.8706L63.3026 71.2871C63.8961 71.7708 64.7908 71.4354 64.92 70.6808Z" stroke="#004181" stroke-width="2"/>
<path d="M62.3623 42.3437L40.9694 55.6638C40.775 55.7848 40.6876 56.0225 40.7574 56.2406L44.5275 68.022C44.5938 68.2291 44.7863 68.3696 45.0037 68.3696H45.662C45.9289 68.3696 46.1487 68.16 46.1614 67.8934L46.6288 58.0776C46.6352 57.9445 46.6944 57.8194 46.7933 57.7302L62.9615 43.1393C63.4144 42.7306 62.8801 42.0212 62.3623 42.3437Z" fill="#004181"/>
</svg>
