<svg width="601" height="645" viewBox="0 0 601 645" fill="none" xmlns="http://www.w3.org/2000/svg">
<circle cx="312.138" cy="300.872" r="237.568" fill="#DDF6FF"/>
<path d="M483.789 238.161C492.138 248.769 502.427 338.562 508.241 400.576C509.333 412.221 500.161 422.225 488.466 422.265L110.267 423.54C106.949 423.552 104.291 420.461 105.162 417.259C105.284 416.812 105.336 416.477 105.375 416.014C105.793 410.959 107.445 405.513 112.42 391.166C112.847 389.934 113.39 388.732 114.087 387.63C123.637 372.53 132.135 375.504 135.277 379.033C136.19 380.148 138.561 382.989 141.735 386.668C143.246 388.42 145.17 390.426 147.396 389.799C151.447 388.658 154.151 381.341 155.133 376.977C156.143 373.324 159.172 360.125 163.21 336.559C166.187 314.847 170.915 318.217 173.396 323.524C173.82 324.433 174.225 325.35 174.72 326.221C175.424 327.46 176.438 329.232 177.661 331.342C179.637 334.751 183.455 337.283 185.444 333.881C188.417 328.792 190.375 318.309 191.143 311.897C193.499 296.14 198.951 261.202 201.913 247.501C205.951 233.799 211.448 240.422 213.692 245.446C216.945 255.721 224.058 278.054 226.481 285.179C228.904 292.304 231.753 292.258 232.875 291.345C233.769 290.536 235.98 288.046 238.344 284.065C238.979 282.995 239.593 281.844 240.649 281.187C242.436 280.074 244.172 280.801 245.277 281.717C245.802 282.151 246.168 282.737 246.502 283.331C247.122 284.432 248.001 285.991 248.94 287.645C250.173 289.818 253.044 291.748 254.256 289.563C254.478 289.163 254.906 288.432 255.1 288.018C257.053 283.861 260.34 263.767 261.818 253.666C262.331 250.321 263.879 241.847 266.203 232.869L266.211 232.839C266.638 231.188 267.112 229.356 268.499 228.367C274.812 223.867 278.749 259.679 279.991 279.699C281.337 299.337 284.097 340.532 284.366 348.205C284.703 357.796 286.386 367.387 287.732 376.977C288.2 378.885 288.643 380.049 289.074 380.691C290.773 383.223 292.765 377.477 293.632 374.554C296.132 366.129 299.487 359.926 301.682 356.681C302.435 355.568 303.402 354.634 304.426 353.764C308.763 350.082 315.938 343.457 319.03 338.614C321.702 334.43 324.544 334.505 326.388 335.485C327.426 336.037 328.071 337.082 328.852 337.961C330.254 339.54 332.548 341.354 335.185 341.354C340.031 341.354 343.71 327.196 344.944 320.117C346.851 312.353 351.002 295.181 352.348 288.604C353.915 280.948 355.775 274.48 359.285 266.434C359.811 265.229 360.435 264.045 361.344 263.096C366.353 257.87 369.827 265.018 372.516 271.162L372.528 271.191C373.214 272.757 373.954 274.448 375.452 275.269C378.745 277.071 380.98 271.586 382.974 264.627C385.666 258.051 390.378 226.264 392.397 211.192C393.295 206.169 396.099 191.463 400.138 172.829C405.792 154.743 412.141 173.514 414.609 185.16C419.994 210.964 431.234 264.216 433.119 270.793C435.475 279.014 436.821 279.699 440.86 279.699C444.793 280.199 451.272 266.645 454.759 258.028C455.378 256.5 456.071 254.951 457.327 253.884C457.868 253.423 458.46 253.05 459.043 252.902C460.524 252.525 461.323 254.397 462.042 255.747C465.335 261.932 467.873 259.379 468.793 257.092C471.041 252.691 475.422 244.655 478.545 240.449C479.921 238.596 482.361 236.347 483.789 238.161Z" fill="url(#paint0_linear_908_965)"/>
<rect x="316.773" y="278.855" width="264.598" height="330.768" rx="29.5" stroke="#9FC6D6" stroke-dasharray="5 5"/>
<g filter="url(#filter0_d_908_965)">
<rect x="322.707" y="287.241" width="249.056" height="315.226" rx="30" transform="rotate(-0.56423 322.707 287.241)" fill="white"/>
</g>
<path d="M529.487 440.563C529.487 418.992 520.918 398.305 505.665 383.052C490.412 367.799 469.725 359.229 448.153 359.229C426.582 359.229 405.895 367.799 390.642 383.052C375.389 398.305 366.82 418.992 366.82 440.563" stroke="#0F2132" stroke-opacity="0.07" stroke-width="30"/>
<path d="M498.24 440.563C498.24 427.28 492.963 414.54 483.57 405.147C474.177 395.754 461.437 390.477 448.153 390.477C434.87 390.477 422.13 395.754 412.737 405.147C403.344 414.54 398.067 427.28 398.067 440.563" stroke="url(#paint1_linear_908_965)" stroke-linecap="round" stroke-dasharray="0 1 10 0 1 10"/>
<path d="M505.593 383.052C490.347 367.799 469.671 359.229 448.111 359.229C426.551 359.229 405.874 367.799 390.629 383.052C375.384 398.305 366.82 418.992 366.82 440.563" stroke="#004181" stroke-width="30"/>
<path d="M495.483 392.774L515.242 373.015" stroke="white" stroke-width="5"/>
<g filter="url(#filter1_d_908_965)">
<rect x="353.034" y="440.104" width="190.238" height="77.1981" rx="4" fill="white"/>
</g>
<path d="M424.898 462.51L419.578 474.97L416.738 474.97L422.098 462.83L415.258 462.83L415.258 460.43L424.898 460.43L424.898 462.51ZM427.455 471.81C428.735 470.744 429.755 469.857 430.515 469.15C431.275 468.43 431.908 467.684 432.415 466.91C432.921 466.137 433.175 465.377 433.175 464.63C433.175 463.95 433.015 463.417 432.695 463.03C432.375 462.644 431.881 462.45 431.215 462.45C430.548 462.45 430.035 462.677 429.675 463.13C429.315 463.57 429.128 464.177 429.115 464.95L426.395 464.95C426.448 463.35 426.921 462.137 427.815 461.31C428.721 460.484 429.868 460.07 431.255 460.07C432.775 460.07 433.941 460.477 434.755 461.29C435.568 462.09 435.975 463.15 435.975 464.47C435.975 465.51 435.695 466.504 435.135 467.45C434.575 468.397 433.935 469.224 433.215 469.93C432.495 470.624 431.555 471.464 430.395 472.45L436.295 472.45L436.295 474.77L426.415 474.77L426.415 472.69L427.455 471.81ZM439.619 475.11C439.112 475.11 438.692 474.957 438.359 474.65C438.039 474.33 437.879 473.937 437.879 473.47C437.879 473.004 438.039 472.617 438.359 472.31C438.692 471.99 439.112 471.83 439.619 471.83C440.112 471.83 440.519 471.99 440.839 472.31C441.159 472.617 441.319 473.004 441.319 473.47C441.319 473.937 441.159 474.33 440.839 474.65C440.519 474.957 440.112 475.11 439.619 475.11ZM453.054 462.81L446.574 462.81L446.574 466.23C446.854 465.884 447.254 465.604 447.774 465.39C448.294 465.164 448.848 465.05 449.434 465.05C450.501 465.05 451.374 465.284 452.054 465.75C452.734 466.217 453.228 466.817 453.534 467.55C453.841 468.27 453.994 469.044 453.994 469.87C453.994 471.404 453.554 472.637 452.674 473.57C451.808 474.504 450.568 474.97 448.954 474.97C447.434 474.97 446.221 474.59 445.314 473.83C444.408 473.07 443.894 472.077 443.774 470.85L446.494 470.85C446.614 471.384 446.881 471.81 447.294 472.13C447.721 472.45 448.261 472.61 448.914 472.61C449.701 472.61 450.294 472.364 450.694 471.87C451.094 471.377 451.294 470.724 451.294 469.91C451.294 469.084 451.088 468.457 450.674 468.03C450.274 467.59 449.681 467.37 448.894 467.37C448.334 467.37 447.868 467.51 447.494 467.79C447.121 468.07 446.854 468.444 446.694 468.91L444.014 468.91L444.014 460.35L453.054 460.35L453.054 462.81ZM460.785 463.71C461.612 463.71 462.339 463.877 462.965 464.21C463.592 464.53 464.085 464.95 464.445 465.47L464.445 463.89L467.265 463.89L467.265 475.05C467.265 476.077 467.059 476.99 466.645 477.79C466.232 478.604 465.612 479.244 464.785 479.71C463.959 480.19 462.959 480.43 461.785 480.43C460.212 480.43 458.919 480.064 457.905 479.33C456.905 478.597 456.339 477.597 456.205 476.33L458.985 476.33C459.132 476.837 459.445 477.237 459.925 477.53C460.419 477.837 461.012 477.99 461.705 477.99C462.519 477.99 463.179 477.744 463.685 477.25C464.192 476.77 464.445 476.037 464.445 475.05L464.445 473.33C464.085 473.85 463.585 474.284 462.945 474.63C462.319 474.977 461.599 475.15 460.785 475.15C459.852 475.15 458.999 474.91 458.225 474.43C457.452 473.95 456.839 473.277 456.385 472.41C455.945 471.53 455.725 470.524 455.725 469.39C455.725 468.27 455.945 467.277 456.385 466.41C456.839 465.544 457.445 464.877 458.205 464.41C458.979 463.944 459.839 463.71 460.785 463.71ZM464.445 469.43C464.445 468.75 464.312 468.17 464.045 467.69C463.779 467.197 463.419 466.824 462.965 466.57C462.512 466.304 462.025 466.17 461.505 466.17C460.985 466.17 460.505 466.297 460.065 466.55C459.625 466.804 459.265 467.177 458.985 467.67C458.719 468.15 458.585 468.724 458.585 469.39C458.585 470.057 458.719 470.644 458.985 471.15C459.265 471.644 459.625 472.024 460.065 472.29C460.519 472.557 460.999 472.69 461.505 472.69C462.025 472.69 462.512 472.564 462.965 472.31C463.419 472.044 463.779 471.67 464.045 471.19C464.312 470.697 464.445 470.11 464.445 469.43ZM472.8 465.51C473.16 464.977 473.653 464.544 474.28 464.21C474.92 463.877 475.647 463.71 476.46 463.71C477.407 463.71 478.26 463.944 479.02 464.41C479.793 464.877 480.4 465.544 480.84 466.41C481.293 467.264 481.52 468.257 481.52 469.39C481.52 470.524 481.293 471.53 480.84 472.41C480.4 473.277 479.793 473.95 479.02 474.43C478.26 474.91 477.407 475.15 476.46 475.15C475.633 475.15 474.907 474.99 474.28 474.67C473.667 474.337 473.173 473.91 472.8 473.39L472.8 474.97L470 474.97L470 460.17L472.8 460.17L472.8 465.51ZM478.66 469.39C478.66 468.724 478.52 468.15 478.24 467.67C477.973 467.177 477.613 466.804 477.16 466.55C476.72 466.297 476.24 466.17 475.72 466.17C475.213 466.17 474.733 466.304 474.28 466.57C473.84 466.824 473.48 467.197 473.2 467.69C472.933 468.184 472.8 468.764 472.8 469.43C472.8 470.097 472.933 470.677 473.2 471.17C473.48 471.664 473.84 472.044 474.28 472.31C474.733 472.564 475.213 472.69 475.72 472.69C476.24 472.69 476.72 472.557 477.16 472.29C477.613 472.024 477.973 471.644 478.24 471.15C478.52 470.657 478.66 470.07 478.66 469.39Z" fill="#004181"/>
<path d="M402.141 494.568C401.525 494.568 400.965 494.428 400.461 494.148C399.965 493.868 399.573 493.472 399.285 492.96C399.005 492.44 398.865 491.84 398.865 491.16C398.865 490.488 399.009 489.896 399.297 489.384C399.593 488.864 399.993 488.468 400.497 488.196C401.001 487.916 401.565 487.776 402.189 487.776C402.813 487.776 403.377 487.916 403.881 488.196C404.385 488.468 404.781 488.86 405.069 489.372C405.365 489.884 405.513 490.48 405.513 491.16C405.513 491.84 405.361 492.44 405.057 492.96C404.761 493.472 404.357 493.868 403.845 494.148C403.333 494.428 402.765 494.568 402.141 494.568ZM402.141 493.608C402.533 493.608 402.901 493.516 403.245 493.332C403.589 493.148 403.865 492.872 404.073 492.504C404.289 492.136 404.397 491.688 404.397 491.16C404.397 490.632 404.293 490.184 404.085 489.816C403.877 489.448 403.605 489.176 403.269 489C402.933 488.816 402.569 488.724 402.177 488.724C401.777 488.724 401.409 488.816 401.073 489C400.745 489.176 400.481 489.448 400.281 489.816C400.081 490.184 399.981 490.632 399.981 491.16C399.981 491.696 400.077 492.148 400.269 492.516C400.469 492.884 400.733 493.16 401.061 493.344C401.389 493.52 401.749 493.608 402.141 493.608ZM409.625 488.784L408.245 488.784L408.245 494.46L407.153 494.46L407.153 488.784L406.301 488.784L406.301 487.884L407.153 487.884L407.153 487.416C407.153 486.68 407.341 486.144 407.717 485.808C408.101 485.464 408.713 485.292 409.553 485.292L409.553 486.204C409.073 486.204 408.733 486.3 408.533 486.492C408.341 486.676 408.245 486.984 408.245 487.416L408.245 487.884L409.625 487.884L409.625 488.784ZM413.629 486.78L413.629 485.784L415.885 485.784L415.885 494.46L414.781 494.46L414.781 486.78L413.629 486.78ZM417.761 490.032C417.761 488.656 417.985 487.584 418.433 486.816C418.881 486.04 419.665 485.652 420.785 485.652C421.897 485.652 422.677 486.04 423.125 486.816C423.573 487.584 423.797 488.656 423.797 490.032C423.797 491.432 423.573 492.52 423.125 493.296C422.677 494.072 421.897 494.46 420.785 494.46C419.665 494.46 418.881 494.072 418.433 493.296C417.985 492.52 417.761 491.432 417.761 490.032ZM422.717 490.032C422.717 489.336 422.669 488.748 422.573 488.268C422.485 487.78 422.297 487.388 422.009 487.092C421.729 486.796 421.321 486.648 420.785 486.648C420.241 486.648 419.825 486.796 419.537 487.092C419.257 487.388 419.069 487.78 418.973 488.268C418.885 488.748 418.841 489.336 418.841 490.032C418.841 490.752 418.885 491.356 418.973 491.844C419.069 492.332 419.257 492.724 419.537 493.02C419.825 493.316 420.241 493.464 420.785 493.464C421.321 493.464 421.729 493.316 422.009 493.02C422.297 492.724 422.485 492.332 422.573 491.844C422.669 491.356 422.717 490.752 422.717 490.032ZM425.296 490.032C425.296 488.656 425.52 487.584 425.968 486.816C426.416 486.04 427.2 485.652 428.32 485.652C429.432 485.652 430.212 486.04 430.66 486.816C431.108 487.584 431.332 488.656 431.332 490.032C431.332 491.432 431.108 492.52 430.66 493.296C430.212 494.072 429.432 494.46 428.32 494.46C427.2 494.46 426.416 494.072 425.968 493.296C425.52 492.52 425.296 491.432 425.296 490.032ZM430.252 490.032C430.252 489.336 430.204 488.748 430.108 488.268C430.02 487.78 429.832 487.388 429.544 487.092C429.264 486.796 428.856 486.648 428.32 486.648C427.776 486.648 427.36 486.796 427.072 487.092C426.792 487.388 426.604 487.78 426.508 488.268C426.42 488.748 426.376 489.336 426.376 490.032C426.376 490.752 426.42 491.356 426.508 491.844C426.604 492.332 426.792 492.724 427.072 493.02C427.36 493.316 427.776 493.464 428.32 493.464C428.856 493.464 429.264 493.316 429.544 493.02C429.832 492.724 430.02 492.332 430.108 491.844C430.204 491.356 430.252 490.752 430.252 490.032ZM435.723 487.776C436.291 487.776 436.787 487.9 437.211 488.148C437.643 488.396 437.963 488.708 438.171 489.084L438.171 487.884L439.275 487.884L439.275 494.604C439.275 495.204 439.147 495.736 438.891 496.2C438.635 496.672 438.267 497.04 437.787 497.304C437.315 497.568 436.763 497.7 436.131 497.7C435.267 497.7 434.547 497.496 433.971 497.088C433.395 496.68 433.055 496.124 432.951 495.42L434.031 495.42C434.151 495.82 434.399 496.14 434.775 496.38C435.151 496.628 435.603 496.752 436.131 496.752C436.731 496.752 437.219 496.564 437.595 496.188C437.979 495.812 438.171 495.284 438.171 494.604L438.171 493.224C437.955 493.608 437.635 493.928 437.211 494.184C436.787 494.44 436.291 494.568 435.723 494.568C435.139 494.568 434.607 494.424 434.127 494.136C433.655 493.848 433.283 493.444 433.011 492.924C432.739 492.404 432.603 491.812 432.603 491.148C432.603 490.476 432.739 489.888 433.011 489.384C433.283 488.872 433.655 488.476 434.127 488.196C434.607 487.916 435.139 487.776 435.723 487.776ZM438.171 491.16C438.171 490.664 438.071 490.232 437.871 489.864C437.671 489.496 437.399 489.216 437.055 489.024C436.719 488.824 436.347 488.724 435.939 488.724C435.531 488.724 435.159 488.82 434.823 489.012C434.487 489.204 434.219 489.484 434.019 489.852C433.819 490.22 433.719 490.652 433.719 491.148C433.719 491.652 433.819 492.092 434.019 492.468C434.219 492.836 434.487 493.12 434.823 493.32C435.159 493.512 435.531 493.608 435.939 493.608C436.347 493.608 436.719 493.512 437.055 493.32C437.399 493.12 437.671 492.836 437.871 492.468C438.071 492.092 438.171 491.656 438.171 491.16ZM442.212 489.108C442.436 488.716 442.764 488.396 443.196 488.148C443.628 487.9 444.12 487.776 444.672 487.776C445.264 487.776 445.796 487.916 446.268 488.196C446.74 488.476 447.112 488.872 447.384 489.384C447.656 489.888 447.792 490.476 447.792 491.148C447.792 491.812 447.656 492.404 447.384 492.924C447.112 493.444 446.736 493.848 446.256 494.136C445.784 494.424 445.256 494.568 444.672 494.568C444.104 494.568 443.604 494.444 443.172 494.196C442.748 493.948 442.428 493.632 442.212 493.248L442.212 494.46L441.12 494.46L441.12 485.58L442.212 485.58L442.212 489.108ZM446.676 491.148C446.676 490.652 446.576 490.22 446.376 489.852C446.176 489.484 445.904 489.204 445.56 489.012C445.224 488.82 444.852 488.724 444.444 488.724C444.044 488.724 443.672 488.824 443.328 489.024C442.992 489.216 442.72 489.5 442.512 489.876C442.312 490.244 442.212 490.672 442.212 491.16C442.212 491.656 442.312 492.092 442.512 492.468C442.72 492.836 442.992 493.12 443.328 493.32C443.672 493.512 444.044 493.608 444.444 493.608C444.852 493.608 445.224 493.512 445.56 493.32C445.904 493.12 446.176 492.836 446.376 492.468C446.576 492.092 446.676 491.652 446.676 491.148ZM454.757 494.568C454.253 494.568 453.801 494.484 453.401 494.316C453.001 494.14 452.685 493.9 452.453 493.596C452.221 493.284 452.093 492.928 452.069 492.528L453.197 492.528C453.229 492.856 453.381 493.124 453.653 493.332C453.933 493.54 454.297 493.644 454.745 493.644C455.161 493.644 455.489 493.552 455.729 493.368C455.969 493.184 456.089 492.952 456.089 492.672C456.089 492.384 455.961 492.172 455.705 492.036C455.449 491.892 455.053 491.752 454.517 491.616C454.029 491.488 453.629 491.36 453.317 491.232C453.013 491.096 452.749 490.9 452.525 490.644C452.309 490.38 452.201 490.036 452.201 489.612C452.201 489.276 452.301 488.968 452.501 488.688C452.701 488.408 452.985 488.188 453.353 488.028C453.721 487.86 454.141 487.776 454.613 487.776C455.341 487.776 455.929 487.96 456.377 488.328C456.825 488.696 457.065 489.2 457.097 489.84L456.005 489.84C455.981 489.496 455.841 489.22 455.585 489.012C455.337 488.804 455.001 488.7 454.577 488.7C454.185 488.7 453.873 488.784 453.641 488.952C453.409 489.12 453.293 489.34 453.293 489.612C453.293 489.828 453.361 490.008 453.497 490.152C453.641 490.288 453.817 490.4 454.025 490.488C454.241 490.568 454.537 490.66 454.913 490.764C455.385 490.892 455.769 491.02 456.065 491.148C456.361 491.268 456.613 491.452 456.821 491.7C457.037 491.948 457.149 492.272 457.157 492.672C457.157 493.032 457.057 493.356 456.857 493.644C456.657 493.932 456.373 494.16 456.005 494.328C455.645 494.488 455.229 494.568 454.757 494.568ZM460.031 488.784L460.031 492.66C460.031 492.98 460.099 493.208 460.235 493.344C460.371 493.472 460.607 493.536 460.943 493.536L461.747 493.536L461.747 494.46L460.763 494.46C460.155 494.46 459.699 494.32 459.395 494.04C459.091 493.76 458.939 493.3 458.939 492.66L458.939 488.784L458.087 488.784L458.087 487.884L458.939 487.884L458.939 486.228L460.031 486.228L460.031 487.884L461.747 487.884L461.747 488.784L460.031 488.784ZM465.938 494.568C465.322 494.568 464.762 494.428 464.258 494.148C463.762 493.868 463.37 493.472 463.082 492.96C462.802 492.44 462.662 491.84 462.662 491.16C462.662 490.488 462.806 489.896 463.094 489.384C463.39 488.864 463.79 488.468 464.294 488.196C464.798 487.916 465.362 487.776 465.986 487.776C466.61 487.776 467.174 487.916 467.678 488.196C468.182 488.468 468.578 488.86 468.866 489.372C469.162 489.884 469.31 490.48 469.31 491.16C469.31 491.84 469.158 492.44 468.854 492.96C468.558 493.472 468.154 493.868 467.642 494.148C467.13 494.428 466.562 494.568 465.938 494.568ZM465.938 493.608C466.33 493.608 466.698 493.516 467.042 493.332C467.386 493.148 467.662 492.872 467.87 492.504C468.086 492.136 468.194 491.688 468.194 491.16C468.194 490.632 468.09 490.184 467.882 489.816C467.674 489.448 467.402 489.176 467.066 489C466.73 488.816 466.366 488.724 465.974 488.724C465.574 488.724 465.206 488.816 464.87 489C464.542 489.176 464.278 489.448 464.078 489.816C463.878 490.184 463.778 490.632 463.778 491.16C463.778 491.696 463.874 492.148 464.066 492.516C464.266 492.884 464.53 493.16 464.858 493.344C465.186 493.52 465.546 493.608 465.938 493.608ZM471.837 488.952C472.029 488.576 472.301 488.284 472.653 488.076C473.013 487.868 473.449 487.764 473.961 487.764L473.961 488.892L473.673 488.892C472.449 488.892 471.837 489.556 471.837 490.884L471.837 494.46L470.745 494.46L470.745 487.884L471.837 487.884L471.837 488.952ZM474.814 491.148C474.814 490.476 474.95 489.888 475.222 489.384C475.494 488.872 475.866 488.476 476.338 488.196C476.818 487.916 477.35 487.776 477.934 487.776C478.51 487.776 479.01 487.9 479.434 488.148C479.858 488.396 480.174 488.708 480.382 489.084L480.382 487.884L481.486 487.884L481.486 494.46L480.382 494.46L480.382 493.236C480.166 493.62 479.842 493.94 479.41 494.196C478.986 494.444 478.49 494.568 477.922 494.568C477.338 494.568 476.81 494.424 476.338 494.136C475.866 493.848 475.494 493.444 475.222 492.924C474.95 492.404 474.814 491.812 474.814 491.148ZM480.382 491.16C480.382 490.664 480.282 490.232 480.082 489.864C479.882 489.496 479.61 489.216 479.266 489.024C478.93 488.824 478.558 488.724 478.15 488.724C477.742 488.724 477.37 488.82 477.034 489.012C476.698 489.204 476.43 489.484 476.23 489.852C476.03 490.22 475.93 490.652 475.93 491.148C475.93 491.652 476.03 492.092 476.23 492.468C476.43 492.836 476.698 493.12 477.034 493.32C477.37 493.512 477.742 493.608 478.15 493.608C478.558 493.608 478.93 493.512 479.266 493.32C479.61 493.12 479.882 492.836 480.082 492.468C480.282 492.092 480.382 491.656 480.382 491.16ZM486.043 487.776C486.611 487.776 487.107 487.9 487.531 488.148C487.963 488.396 488.283 488.708 488.491 489.084L488.491 487.884L489.595 487.884L489.595 494.604C489.595 495.204 489.467 495.736 489.211 496.2C488.955 496.672 488.587 497.04 488.107 497.304C487.635 497.568 487.083 497.7 486.451 497.7C485.587 497.7 484.867 497.496 484.291 497.088C483.715 496.68 483.375 496.124 483.271 495.42L484.351 495.42C484.471 495.82 484.719 496.14 485.095 496.38C485.471 496.628 485.923 496.752 486.451 496.752C487.051 496.752 487.539 496.564 487.915 496.188C488.299 495.812 488.491 495.284 488.491 494.604L488.491 493.224C488.275 493.608 487.955 493.928 487.531 494.184C487.107 494.44 486.611 494.568 486.043 494.568C485.459 494.568 484.927 494.424 484.447 494.136C483.975 493.848 483.603 493.444 483.331 492.924C483.059 492.404 482.923 491.812 482.923 491.148C482.923 490.476 483.059 489.888 483.331 489.384C483.603 488.872 483.975 488.476 484.447 488.196C484.927 487.916 485.459 487.776 486.043 487.776ZM488.491 491.16C488.491 490.664 488.391 490.232 488.191 489.864C487.991 489.496 487.719 489.216 487.375 489.024C487.039 488.824 486.667 488.724 486.259 488.724C485.851 488.724 485.479 488.82 485.143 489.012C484.807 489.204 484.539 489.484 484.339 489.852C484.139 490.22 484.039 490.652 484.039 491.148C484.039 491.652 484.139 492.092 484.339 492.468C484.539 492.836 484.807 493.12 485.143 493.32C485.479 493.512 485.851 493.608 486.259 493.608C486.667 493.608 487.039 493.512 487.375 493.32C487.719 493.12 487.991 492.836 488.191 492.468C488.391 492.092 488.491 491.656 488.491 491.16ZM497.441 490.92C497.441 491.128 497.429 491.348 497.405 491.58L492.149 491.58C492.189 492.228 492.409 492.736 492.809 493.104C493.217 493.464 493.709 493.644 494.285 493.644C494.757 493.644 495.149 493.536 495.461 493.32C495.781 493.096 496.005 492.8 496.133 492.432L497.309 492.432C497.133 493.064 496.781 493.58 496.253 493.98C495.725 494.372 495.069 494.568 494.285 494.568C493.661 494.568 493.101 494.428 492.605 494.148C492.117 493.868 491.733 493.472 491.453 492.96C491.173 492.44 491.033 491.84 491.033 491.16C491.033 490.48 491.169 489.884 491.441 489.372C491.713 488.86 492.093 488.468 492.581 488.196C493.077 487.916 493.645 487.776 494.285 487.776C494.909 487.776 495.461 487.912 495.941 488.184C496.421 488.456 496.789 488.832 497.045 489.312C497.309 489.784 497.441 490.32 497.441 490.92ZM496.313 490.692C496.313 490.276 496.221 489.92 496.037 489.624C495.853 489.32 495.601 489.092 495.281 488.94C494.969 488.78 494.621 488.7 494.237 488.7C493.685 488.7 493.213 488.876 492.821 489.228C492.437 489.58 492.217 490.068 492.161 490.692L496.313 490.692ZM438.902 505.884L438.902 512.46L437.81 512.46L437.81 511.488C437.602 511.824 437.31 512.088 436.934 512.28C436.566 512.464 436.158 512.556 435.71 512.556C435.198 512.556 434.738 512.452 434.33 512.244C433.922 512.028 433.598 511.708 433.358 511.284C433.126 510.86 433.01 510.344 433.01 509.736L433.01 505.884L434.09 505.884L434.09 509.592C434.09 510.24 434.254 510.74 434.582 511.092C434.91 511.436 435.358 511.608 435.926 511.608C436.51 511.608 436.97 511.428 437.306 511.068C437.642 510.708 437.81 510.184 437.81 509.496L437.81 505.884L438.902 505.884ZM443.073 512.568C442.569 512.568 442.117 512.484 441.717 512.316C441.317 512.14 441.001 511.9 440.769 511.596C440.537 511.284 440.409 510.928 440.385 510.528L441.513 510.528C441.545 510.856 441.697 511.124 441.969 511.332C442.249 511.54 442.613 511.644 443.061 511.644C443.477 511.644 443.805 511.552 444.045 511.368C444.285 511.184 444.405 510.952 444.405 510.672C444.405 510.384 444.277 510.172 444.021 510.036C443.765 509.892 443.369 509.752 442.833 509.616C442.345 509.488 441.945 509.36 441.633 509.232C441.329 509.096 441.065 508.9 440.841 508.644C440.625 508.38 440.517 508.036 440.517 507.612C440.517 507.276 440.617 506.968 440.817 506.688C441.017 506.408 441.301 506.188 441.669 506.028C442.037 505.86 442.457 505.776 442.929 505.776C443.657 505.776 444.245 505.96 444.693 506.328C445.141 506.696 445.381 507.2 445.413 507.84L444.321 507.84C444.297 507.496 444.157 507.22 443.901 507.012C443.653 506.804 443.317 506.7 442.893 506.7C442.501 506.7 442.189 506.784 441.957 506.952C441.725 507.12 441.609 507.34 441.609 507.612C441.609 507.828 441.677 508.008 441.813 508.152C441.957 508.288 442.133 508.4 442.341 508.488C442.557 508.568 442.853 508.66 443.229 508.764C443.701 508.892 444.085 509.02 444.381 509.148C444.677 509.268 444.929 509.452 445.137 509.7C445.353 509.948 445.465 510.272 445.473 510.672C445.473 511.032 445.373 511.356 445.173 511.644C444.973 511.932 444.689 512.16 444.321 512.328C443.961 512.488 443.545 512.568 443.073 512.568ZM453.015 508.92C453.015 509.128 453.003 509.348 452.979 509.58L447.723 509.58C447.763 510.228 447.983 510.736 448.383 511.104C448.791 511.464 449.283 511.644 449.859 511.644C450.331 511.644 450.723 511.536 451.035 511.32C451.355 511.096 451.579 510.8 451.707 510.432L452.883 510.432C452.707 511.064 452.355 511.58 451.827 511.98C451.299 512.372 450.643 512.568 449.859 512.568C449.235 512.568 448.675 512.428 448.179 512.148C447.691 511.868 447.307 511.472 447.027 510.96C446.747 510.44 446.607 509.84 446.607 509.16C446.607 508.48 446.743 507.884 447.015 507.372C447.287 506.86 447.667 506.468 448.155 506.196C448.651 505.916 449.219 505.776 449.859 505.776C450.483 505.776 451.035 505.912 451.515 506.184C451.995 506.456 452.363 506.832 452.619 507.312C452.883 507.784 453.015 508.32 453.015 508.92ZM451.887 508.692C451.887 508.276 451.795 507.92 451.611 507.624C451.427 507.32 451.175 507.092 450.855 506.94C450.543 506.78 450.195 506.7 449.811 506.7C449.259 506.7 448.787 506.876 448.395 507.228C448.011 507.58 447.791 508.068 447.735 508.692L451.887 508.692ZM454.048 509.148C454.048 508.476 454.184 507.888 454.456 507.384C454.728 506.872 455.1 506.476 455.572 506.196C456.052 505.916 456.588 505.776 457.18 505.776C457.692 505.776 458.168 505.896 458.608 506.136C459.048 506.368 459.384 506.676 459.616 507.06L459.616 503.58L460.72 503.58L460.72 512.46L459.616 512.46L459.616 511.224C459.4 511.616 459.08 511.94 458.656 512.196C458.232 512.444 457.736 512.568 457.168 512.568C456.584 512.568 456.052 512.424 455.572 512.136C455.1 511.848 454.728 511.444 454.456 510.924C454.184 510.404 454.048 509.812 454.048 509.148ZM459.616 509.16C459.616 508.664 459.516 508.232 459.316 507.864C459.116 507.496 458.844 507.216 458.5 507.024C458.164 506.824 457.792 506.724 457.384 506.724C456.976 506.724 456.604 506.82 456.268 507.012C455.932 507.204 455.664 507.484 455.464 507.852C455.264 508.22 455.164 508.652 455.164 509.148C455.164 509.652 455.264 510.092 455.464 510.468C455.664 510.836 455.932 511.12 456.268 511.32C456.604 511.512 456.976 511.608 457.384 511.608C457.792 511.608 458.164 511.512 458.5 511.32C458.844 511.12 459.116 510.836 459.316 510.468C459.516 510.092 459.616 509.656 459.616 509.16ZM462.914 512.532C462.706 512.532 462.53 512.46 462.386 512.316C462.242 512.172 462.17 511.996 462.17 511.788C462.17 511.58 462.242 511.404 462.386 511.26C462.53 511.116 462.706 511.044 462.914 511.044C463.114 511.044 463.282 511.116 463.418 511.26C463.562 511.404 463.634 511.58 463.634 511.788C463.634 511.996 463.562 512.172 463.418 512.316C463.282 512.46 463.114 512.532 462.914 512.532Z" fill="#696D70"/>
<g filter="url(#filter2_d_908_965)">
<rect x="143.497" y="436.781" width="129.225" height="130.283" rx="20" transform="rotate(-0.56423 143.497 436.781)" fill="white"/>
</g>
<rect x="186.691" y="479.622" width="44.1132" height="44.1132" rx="8" fill="#1BC7C7"/>
<rect x="197.719" y="490.65" width="6.89269" height="6.89269" rx="1" fill="white"/>
<rect x="212.883" y="490.65" width="6.89269" height="6.89269" rx="1" fill="white"/>
<rect x="197.719" y="505.814" width="6.89269" height="6.89269" rx="1" fill="white"/>
<rect x="212.883" y="505.814" width="6.89269" height="6.89269" rx="3" fill="white"/>
<g filter="url(#filter3_d_908_965)">
<rect x="439.423" y="105.013" width="129.225" height="130.283" rx="20" transform="rotate(-0.56423 439.423 105.013)" fill="white"/>
</g>
<g clip-path="url(#clip0_908_965)">
<path d="M514.012 145.537C515.697 146.05 517.23 146.895 518.498 148.007L522.452 151.526C523.706 152.652 524.657 154.015 525.234 155.512H514.012V145.537ZM525.951 159.757V185.228C525.947 188.041 524.688 190.739 522.45 192.728C520.211 194.718 517.177 195.837 514.012 195.84H494.909C491.744 195.837 488.709 194.718 486.471 192.728C484.233 190.739 482.974 188.041 482.97 185.228V155.512C482.974 152.699 484.233 150.001 486.471 148.012C488.709 146.022 491.744 144.903 494.909 144.9H509.236V155.512C509.236 156.638 509.739 157.718 510.635 158.514C511.53 159.31 512.745 159.757 514.012 159.757H525.951ZM515.941 181.859C515.757 181.633 515.524 181.441 515.256 181.294C514.988 181.148 514.69 181.05 514.38 181.006C514.069 180.962 513.752 180.974 513.446 181.039C513.14 181.105 512.852 181.223 512.598 181.388C510.994 182.381 509.12 182.974 507.17 183.105C506.407 183.087 505.675 182.827 505.107 182.373C503.861 181.494 502.323 181.005 500.733 180.983C498.084 181.204 495.561 182.092 493.459 183.542C493.199 183.708 492.978 183.918 492.81 184.16C492.643 184.403 492.532 184.673 492.484 184.955C492.437 185.236 492.453 185.523 492.533 185.799C492.613 186.075 492.754 186.334 492.949 186.56C493.143 186.786 493.387 186.975 493.665 187.116C493.944 187.256 494.251 187.346 494.569 187.379C494.887 187.412 495.21 187.388 495.517 187.308C495.824 187.227 496.111 187.093 496.358 186.913C497.63 186.027 499.136 185.447 500.733 185.228C501.32 185.228 501.619 185.393 502.404 185.864C503.765 186.82 505.446 187.343 507.18 187.35C510.148 187.23 513.013 186.35 515.432 184.818C515.94 184.485 516.278 183.986 516.373 183.432C516.468 182.877 516.313 182.312 515.941 181.859ZM516.399 174.615C516.399 174.052 516.148 173.512 515.7 173.114C515.252 172.716 514.645 172.493 514.012 172.493H494.909C494.276 172.493 493.668 172.716 493.22 173.114C492.773 173.512 492.521 174.052 492.521 174.615C492.521 175.178 492.773 175.718 493.22 176.116C493.668 176.514 494.276 176.738 494.909 176.738H514.012C514.645 176.738 515.252 176.514 515.7 176.116C516.148 175.718 516.399 175.178 516.399 174.615ZM516.399 166.125C516.399 165.562 516.148 165.022 515.7 164.624C515.252 164.226 514.645 164.003 514.012 164.003H494.909C494.276 164.003 493.668 164.226 493.22 164.624C492.773 165.022 492.521 165.562 492.521 166.125C492.521 166.688 492.773 167.228 493.22 167.626C493.668 168.024 494.276 168.248 494.909 168.248H514.012C514.645 168.248 515.252 168.024 515.7 167.626C516.148 167.228 516.399 166.688 516.399 166.125Z" fill="#03AEF7"/>
</g>
<g filter="url(#filter4_d_908_965)">
<rect x="262.051" y="11.2725" width="129.225" height="130.283" rx="20" transform="rotate(-0.56423 262.051 11.2725)" fill="white"/>
</g>
<g clip-path="url(#clip1_908_965)">
<path d="M324.979 76.8479C324.387 76.2562 323.685 75.7868 322.912 75.4665C322.139 75.1463 321.311 74.9814 320.475 74.9814C319.638 74.9814 318.81 75.1463 318.037 75.4665C317.264 75.7868 316.562 76.2562 315.971 76.8479L301.453 91.3659C301.649 94.0277 302.843 96.5173 304.795 98.337C306.748 100.157 309.315 101.172 311.985 101.18H341.7C343.779 101.18 345.812 100.565 347.543 99.4123L324.979 76.8479Z" fill="#156FF6"/>
<path d="M339.577 67.2205C341.922 67.2205 343.822 65.32 343.822 62.9755C343.822 60.631 341.922 58.7305 339.577 58.7305C337.233 58.7305 335.332 60.631 335.332 62.9755C335.332 65.32 337.233 67.2205 339.577 67.2205Z" fill="#156FF6"/>
<path d="M341.7 50.2402H311.985C309.171 50.2436 306.474 51.3628 304.484 53.3523C302.495 55.3418 301.375 58.0392 301.372 60.8528V85.4442L312.969 73.8468C313.955 72.861 315.125 72.0791 316.413 71.5456C317.7 71.0121 319.081 70.7375 320.475 70.7375C321.868 70.7375 323.249 71.0121 324.536 71.5456C325.824 72.0791 326.994 72.861 327.98 73.8468L350.544 96.4112C351.697 94.6804 352.312 92.6474 352.312 90.568V60.8528C352.309 58.0392 351.19 55.3418 349.2 53.3523C347.211 51.3628 344.513 50.2436 341.7 50.2402ZM339.577 71.4653C337.898 71.4653 336.257 70.9674 334.86 70.0345C333.464 69.1016 332.376 67.7757 331.733 66.2243C331.091 64.6729 330.923 62.9659 331.25 61.319C331.578 59.6721 332.386 58.1593 333.574 56.9719C334.761 55.7846 336.274 54.976 337.921 54.6484C339.568 54.3208 341.275 54.4889 342.826 55.1315C344.378 55.7741 345.703 56.8623 346.636 58.2585C347.569 59.6547 348.067 61.2961 348.067 62.9753C348.067 65.227 347.173 67.3865 345.581 68.9787C343.988 70.5709 341.829 71.4653 339.577 71.4653Z" fill="#156FF6"/>
</g>
<g filter="url(#filter5_d_908_965)">
<rect x="74.5696" y="77.4424" width="129.225" height="130.283" rx="20" transform="rotate(-0.56423 74.5696 77.4424)" fill="white"/>
</g>
<g clip-path="url(#clip2_908_965)">
<path d="M146.658 142.14C146.776 142.204 146.874 142.3 146.941 142.416C147.008 142.532 147.043 142.665 147.04 142.799C147.047 142.914 147.025 143.028 146.978 143.133C146.931 143.238 146.859 143.329 146.769 143.4L134.632 149.473C134.516 149.537 134.386 149.57 134.254 149.568C134.122 149.566 133.993 149.53 133.879 149.464C133.765 149.397 133.67 149.302 133.604 149.187C133.538 149.073 133.503 148.943 133.502 148.811V136.787C133.5 136.653 133.534 136.521 133.6 136.405C133.667 136.289 133.765 136.193 133.882 136.128C133.99 136.065 134.112 136.033 134.236 136.033C134.419 136.038 134.596 136.091 134.752 136.186L146.658 142.14ZM167.391 126.984V158.614C167.388 161.609 166.196 164.48 164.079 166.598C161.961 168.716 159.09 169.907 156.095 169.91H124.465C121.47 169.907 118.599 168.716 116.481 166.598C114.364 164.48 113.172 161.609 113.169 158.614V126.984C113.172 123.989 114.364 121.118 116.481 119.001C118.599 116.883 121.47 115.692 124.465 115.688H156.095C159.09 115.692 161.961 116.883 164.079 119.001C166.196 121.118 167.388 123.989 167.391 126.984ZM151.558 142.799C151.559 141.847 151.302 140.913 150.814 140.095C150.326 139.278 149.626 138.608 148.788 138.156L136.864 132.203C136.061 131.742 135.151 131.501 134.225 131.503C133.299 131.505 132.389 131.751 131.588 132.215C130.787 132.679 130.122 133.346 129.66 134.149C129.198 134.951 128.956 135.861 128.956 136.787V148.811C128.951 149.737 129.192 150.648 129.654 151.45C130.116 152.252 130.783 152.917 131.586 153.377C132.4 153.852 133.324 154.104 134.266 154.107C135.137 154.111 135.994 153.886 136.751 153.454L148.897 147.383C149.709 146.926 150.384 146.26 150.852 145.454C151.32 144.648 151.564 143.731 151.558 142.799Z" fill="#FF4E4E"/>
</g>
<g filter="url(#filter6_d_908_965)">
<rect x="25.8613" y="268.6" width="129.225" height="130.283" rx="20" transform="rotate(-0.56423 25.8613 268.6)" fill="white"/>
</g>
<g clip-path="url(#clip3_908_965)">
<path d="M96.3965 320.86V304.332C98.599 305.206 100.625 306.553 102.343 308.35L110.748 317.16C112.466 318.957 113.752 321.08 114.586 323.388H98.8089C97.4773 323.388 96.3965 322.253 96.3965 320.86ZM93.984 351.188H101.221V346.133H93.984V351.188ZM81.9218 341.079H89.1592V336.024H81.9218V341.079ZM81.9218 351.188H89.1592V346.133H81.9218V351.188ZM115.638 328.442H98.8089C94.8187 328.442 91.5716 325.04 91.5716 320.86V303.23C91.1832 303.202 90.7948 303.169 90.4016 303.169H79.5094C72.8583 303.169 67.4472 308.838 67.4472 315.806V351.188C67.4472 358.156 72.8583 363.825 79.5094 363.825H103.634C110.285 363.825 115.696 358.156 115.696 351.188V329.668C115.696 329.256 115.665 328.849 115.638 328.442ZM106.046 351.188C106.046 353.976 103.882 356.243 101.221 356.243H81.9218C79.2609 356.243 77.0969 353.976 77.0969 351.188V336.024C77.0969 333.236 79.2609 330.969 81.9218 330.969H89.1592C91.8201 330.969 93.984 333.236 93.984 336.024V341.079H101.221C103.882 341.079 106.046 343.346 106.046 346.133V351.188Z" fill="#568588"/>
</g>
<defs>
<filter id="filter0_d_908_965" x="297.001" y="275.083" width="303.56" height="369.075" filterUnits="userSpaceOnUse" color-interpolation-filters="sRGB">
<feFlood flood-opacity="0" result="BackgroundImageFix"/>
<feColorMatrix in="SourceAlpha" type="matrix" values="0 0 0 0 0 0 0 0 0 0 0 0 0 0 0 0 0 0 127 0" result="hardAlpha"/>
<feOffset dy="16"/>
<feGaussianBlur stdDeviation="13"/>
<feComposite in2="hardAlpha" operator="out"/>
<feColorMatrix type="matrix" values="0 0 0 0 0.625 0 0 0 0 0.625 0 0 0 0 0.625 0 0 0 0.25 0"/>
<feBlend mode="normal" in2="BackgroundImageFix" result="effect1_dropShadow_908_965"/>
<feBlend mode="normal" in="SourceGraphic" in2="effect1_dropShadow_908_965" result="shape"/>
</filter>
<filter id="filter1_d_908_965" x="303.034" y="394.104" width="290.238" height="177.198" filterUnits="userSpaceOnUse" color-interpolation-filters="sRGB">
<feFlood flood-opacity="0" result="BackgroundImageFix"/>
<feColorMatrix in="SourceAlpha" type="matrix" values="0 0 0 0 0 0 0 0 0 0 0 0 0 0 0 0 0 0 127 0" result="hardAlpha"/>
<feOffset dy="4"/>
<feGaussianBlur stdDeviation="25"/>
<feComposite in2="hardAlpha" operator="out"/>
<feColorMatrix type="matrix" values="0 0 0 0 0 0 0 0 0 0 0 0 0 0 0 0 0 0 0.1 0"/>
<feBlend mode="normal" in2="BackgroundImageFix" result="effect1_dropShadow_908_965"/>
<feBlend mode="normal" in="SourceGraphic" in2="effect1_dropShadow_908_965" result="shape"/>
</filter>
<filter id="filter2_d_908_965" x="117.692" y="425.705" width="182.11" height="183.157" filterUnits="userSpaceOnUse" color-interpolation-filters="sRGB">
<feFlood flood-opacity="0" result="BackgroundImageFix"/>
<feColorMatrix in="SourceAlpha" type="matrix" values="0 0 0 0 0 0 0 0 0 0 0 0 0 0 0 0 0 0 127 0" result="hardAlpha"/>
<feOffset dy="16"/>
<feGaussianBlur stdDeviation="13"/>
<feComposite in2="hardAlpha" operator="out"/>
<feColorMatrix type="matrix" values="0 0 0 0 0.625 0 0 0 0 0.625 0 0 0 0 0.625 0 0 0 0.25 0"/>
<feBlend mode="normal" in2="BackgroundImageFix" result="effect1_dropShadow_908_965"/>
<feBlend mode="normal" in="SourceGraphic" in2="effect1_dropShadow_908_965" result="shape"/>
</filter>
<filter id="filter3_d_908_965" x="413.619" y="93.9365" width="182.11" height="183.157" filterUnits="userSpaceOnUse" color-interpolation-filters="sRGB">
<feFlood flood-opacity="0" result="BackgroundImageFix"/>
<feColorMatrix in="SourceAlpha" type="matrix" values="0 0 0 0 0 0 0 0 0 0 0 0 0 0 0 0 0 0 127 0" result="hardAlpha"/>
<feOffset dy="16"/>
<feGaussianBlur stdDeviation="13"/>
<feComposite in2="hardAlpha" operator="out"/>
<feColorMatrix type="matrix" values="0 0 0 0 0.625 0 0 0 0 0.625 0 0 0 0 0.625 0 0 0 0.25 0"/>
<feBlend mode="normal" in2="BackgroundImageFix" result="effect1_dropShadow_908_965"/>
<feBlend mode="normal" in="SourceGraphic" in2="effect1_dropShadow_908_965" result="shape"/>
</filter>
<filter id="filter4_d_908_965" x="236.247" y="0.195801" width="182.11" height="183.157" filterUnits="userSpaceOnUse" color-interpolation-filters="sRGB">
<feFlood flood-opacity="0" result="BackgroundImageFix"/>
<feColorMatrix in="SourceAlpha" type="matrix" values="0 0 0 0 0 0 0 0 0 0 0 0 0 0 0 0 0 0 127 0" result="hardAlpha"/>
<feOffset dy="16"/>
<feGaussianBlur stdDeviation="13"/>
<feComposite in2="hardAlpha" operator="out"/>
<feColorMatrix type="matrix" values="0 0 0 0 0.625 0 0 0 0 0.625 0 0 0 0 0.625 0 0 0 0.25 0"/>
<feBlend mode="normal" in2="BackgroundImageFix" result="effect1_dropShadow_908_965"/>
<feBlend mode="normal" in="SourceGraphic" in2="effect1_dropShadow_908_965" result="shape"/>
</filter>
<filter id="filter5_d_908_965" x="48.7656" y="66.3657" width="182.11" height="183.157" filterUnits="userSpaceOnUse" color-interpolation-filters="sRGB">
<feFlood flood-opacity="0" result="BackgroundImageFix"/>
<feColorMatrix in="SourceAlpha" type="matrix" values="0 0 0 0 0 0 0 0 0 0 0 0 0 0 0 0 0 0 127 0" result="hardAlpha"/>
<feOffset dy="16"/>
<feGaussianBlur stdDeviation="13"/>
<feComposite in2="hardAlpha" operator="out"/>
<feColorMatrix type="matrix" values="0 0 0 0 0.625 0 0 0 0 0.625 0 0 0 0 0.625 0 0 0 0.25 0"/>
<feBlend mode="normal" in2="BackgroundImageFix" result="effect1_dropShadow_908_965"/>
<feBlend mode="normal" in="SourceGraphic" in2="effect1_dropShadow_908_965" result="shape"/>
</filter>
<filter id="filter6_d_908_965" x="0.0572205" y="257.523" width="182.11" height="183.157" filterUnits="userSpaceOnUse" color-interpolation-filters="sRGB">
<feFlood flood-opacity="0" result="BackgroundImageFix"/>
<feColorMatrix in="SourceAlpha" type="matrix" values="0 0 0 0 0 0 0 0 0 0 0 0 0 0 0 0 0 0 127 0" result="hardAlpha"/>
<feOffset dy="16"/>
<feGaussianBlur stdDeviation="13"/>
<feComposite in2="hardAlpha" operator="out"/>
<feColorMatrix type="matrix" values="0 0 0 0 0.625 0 0 0 0 0.625 0 0 0 0 0.625 0 0 0 0.25 0"/>
<feBlend mode="normal" in2="BackgroundImageFix" result="effect1_dropShadow_908_965"/>
<feBlend mode="normal" in="SourceGraphic" in2="effect1_dropShadow_908_965" result="shape"/>
</filter>
<linearGradient id="paint0_linear_908_965" x1="307.083" y1="165.315" x2="307.083" y2="423.562" gradientUnits="userSpaceOnUse">
<stop stop-color="#94E3FF"/>
<stop offset="1" stop-color="#8FBFDB" stop-opacity="0"/>
</linearGradient>
<linearGradient id="paint1_linear_908_965" x1="448.153" y1="390.477" x2="448.153" y2="440.563" gradientUnits="userSpaceOnUse">
<stop stop-color="#F16021"/>
<stop offset="1" stop-color="#FE464B"/>
</linearGradient>
<clipPath id="clip0_908_965">
<rect width="57.3078" height="50.9403" fill="white" transform="translate(475.806 144.9)"/>
</clipPath>
<clipPath id="clip1_908_965">
<rect width="50.9403" height="50.9403" fill="white" transform="translate(301.372 50.2402)"/>
</clipPath>
<clipPath id="clip2_908_965">
<rect width="54.2225" height="54.2225" fill="white" transform="translate(113.169 115.688)"/>
</clipPath>
<clipPath id="clip3_908_965">
<rect width="57.8986" height="60.6557" fill="white" transform="translate(62.6223 303.169)"/>
</clipPath>
</defs>
</svg>
