<svg width="29" height="28" viewBox="0 0 29 28" fill="none" xmlns="http://www.w3.org/2000/svg">
<path d="M0.14096 6.8978C0.150817 6.95312 0.158797 7.00843 0.162082 7.06421C0.203857 7.78008 0.745046 13.4919 7.54912 20.4464C7.54912 20.4464 13.4266 26.4361 19.6126 27.6955C19.6393 27.701 19.6656 27.707 19.6923 27.7144C20.0669 27.8162 23.2512 28.6211 24.8926 26.975L27.231 24.6785C27.2521 24.6577 27.2742 24.6375 27.2967 24.6181C27.53 24.4176 29.154 22.9172 27.5295 21.3218C25.8853 19.707 23.8125 17.7382 23.5778 17.5151C23.5666 17.5045 23.5558 17.4939 23.545 17.4829C23.4178 17.3529 22.2096 16.1839 20.7944 17.2519C20.7536 17.2828 20.7151 17.3174 20.6785 17.3533L18.3889 19.6079C17.8759 20.0942 17.061 20.0878 16.5555 19.5936L8.73336 11.9412C8.20812 11.4272 8.22174 10.5878 8.7634 10.0904L10.594 8.41068C10.594 8.41068 12.5996 6.58711 10.4456 4.61742L7.24825 1.47735C7.22854 1.45799 7.20976 1.43817 7.19099 1.41743C6.98446 1.18879 5.45195 -0.376636 3.65377 1.3658C3.59885 1.41881 3.53924 1.46675 3.47588 1.50916C2.86569 1.92034 -0.341089 4.21777 0.14096 6.8978Z" fill="white"/>
</svg>
