<svg width="101" height="100" viewBox="0 0 101 100" fill="none" xmlns="http://www.w3.org/2000/svg">
<path d="M0.583313 10C0.583313 4.47715 5.06047 0 10.5833 0H90.5833C96.1062 0 100.583 4.47715 100.583 10V90C100.583 95.5228 96.1062 100 90.5833 100H10.5833C5.06047 100 0.583313 95.5228 0.583313 90V10Z" fill="#F6F6F6"/>
<g clip-path="url(#clip0_908_1175)">
<path d="M68.0833 45H33.0833C31.7026 45 30.5833 46.1193 30.5833 47.5V55C30.5833 56.3807 31.7026 57.5 33.0833 57.5H68.0833C69.464 57.5 70.5833 56.3807 70.5833 55V47.5C70.5833 46.1193 69.464 45 68.0833 45Z" stroke="#004181" stroke-width="2.75" stroke-linecap="round" stroke-linejoin="round"/>
<path d="M63.0833 45V35C63.0833 33.6739 62.5565 32.4021 61.6188 31.4645C60.6812 30.5268 59.4094 30 58.0833 30H43.0833C41.7572 30 40.4855 30.5268 39.5478 31.4645C38.6101 32.4021 38.0833 33.6739 38.0833 35V45M50.5833 57.5V70M60.5833 57.5V62.5M40.5833 57.5V65" stroke="#004181" stroke-width="2.75" stroke-linecap="round" stroke-linejoin="round"/>
</g>
<defs>
<clipPath id="clip0_908_1175">
<rect width="60" height="60" fill="white" transform="translate(20.5833 20)"/>
</clipPath>
</defs>
</svg>
