<svg width="101" height="100" viewBox="0 0 101 100" fill="none" xmlns="http://www.w3.org/2000/svg">
<path d="M0.249954 10C0.249954 4.47715 4.72711 0 10.25 0H90.2499C95.7728 0 100.25 4.47715 100.25 10V90C100.25 95.5228 95.7728 100 90.25 100H10.25C4.72711 100 0.249954 95.5228 0.249954 90V10Z" fill="#F6F6F6"/>
<g clip-path="url(#clip0_908_1133)">
<path d="M37.75 60.0001C34.6306 60.0001 31.6391 58.8148 29.4334 56.705C27.2277 54.5952 25.9886 51.7337 25.9886 48.7501C25.9886 45.7664 27.2277 42.9049 29.4334 40.7951C31.6391 38.6853 34.6306 37.5001 37.75 37.5001C38.4867 34.218 40.6419 31.3338 43.7414 29.4818C46.841 27.6299 50.631 26.962 54.2777 27.6251C57.9245 28.2881 61.1292 30.2278 63.1869 33.0174C65.2445 35.807 65.9867 39.218 65.25 42.5001H67.75C70.0706 42.5001 72.2962 43.4219 73.9371 45.0629C75.5781 46.7038 76.5 48.9294 76.5 51.2501C76.5 53.5707 75.5781 55.7963 73.9371 57.4372C72.2962 59.0782 70.0706 60.0001 67.75 60.0001H37.75Z" stroke="#004181" stroke-width="2.75" stroke-linecap="round" stroke-linejoin="round"/>
<path d="M32.75 70H67.75" stroke="#004181" stroke-width="2.75" stroke-linecap="round" stroke-linejoin="round"/>
</g>
<defs>
<clipPath id="clip0_908_1133">
<rect width="60" height="60" fill="white" transform="translate(20.25 20)"/>
</clipPath>
</defs>
</svg>
