<svg width="101" height="100" viewBox="0 0 101 100" fill="none" xmlns="http://www.w3.org/2000/svg">
<path d="M0.416641 10C0.416641 4.47715 4.89379 0 10.4166 0H90.4166C95.9395 0 100.417 4.47715 100.417 10V90C100.417 95.5228 95.9395 100 90.4166 100H10.4166C4.8938 100 0.416641 95.5228 0.416641 90V10Z" fill="#F6F6F6"/>
<g clip-path="url(#clip0_908_1142)">
<path d="M50.4166 72.5C62.843 72.5 72.9166 62.4264 72.9166 50C72.9166 37.5736 62.843 27.5 50.4166 27.5C37.9902 27.5 27.9166 37.5736 27.9166 50C27.9166 62.4264 37.9902 72.5 50.4166 72.5Z" stroke="#004181" stroke-width="2.75" stroke-linecap="round" stroke-linejoin="round"/>
<path d="M50.4166 72.5C55.9395 72.5 60.4166 62.4264 60.4166 50C60.4166 37.5736 55.9395 27.5 50.4166 27.5C44.8938 27.5 40.4166 37.5736 40.4166 50C40.4166 62.4264 44.8938 72.5 50.4166 72.5Z" stroke="#004181" stroke-width="2.75" stroke-linecap="round" stroke-linejoin="round"/>
<path d="M27.9166 50C27.9166 55.5228 37.9902 60 50.4166 60C62.843 60 72.9166 55.5228 72.9166 50C72.9166 44.4772 62.843 40 50.4166 40C37.9902 40 27.9166 44.4772 27.9166 50Z" stroke="#004181" stroke-width="2.75" stroke-linecap="round" stroke-linejoin="round"/>
</g>
<defs>
<clipPath id="clip0_908_1142">
<rect width="60" height="60" fill="white" transform="translate(20.4166 20)"/>
</clipPath>
</defs>
</svg>
